<?xml version="1.0" encoding="UTF-8"?>
<svg version="1.1" xmlns="http://www.w3.org/2000/svg" width="1802" height="414">
<path d="M0 0 C2.7601709 0.00315199 5.51925826 -0.02034411 8.27929688 -0.0456543 C39.36015097 -0.1584831 65.57652624 10.27796942 87.77539062 32.00317383 C94.02154106 38.54404369 98.52018045 45.53523765 103.02929688 53.31567383 C103.68929687 54.30567383 104.34929687 55.29567383 105.02929688 56.31567383 C105.04331543 55.17521606 105.04331543 55.17521606 105.05761719 54.01171875 C105.11188084 50.50825549 105.19541753 47.00604831 105.27929688 43.50317383 C105.29347656 42.30756836 105.30765625 41.11196289 105.32226562 39.88012695 C105.65064501 27.82860362 108.19915533 19.20957793 116.66992188 10.47583008 C125.2926769 2.58115536 134.7240545 -0.14981145 146.25219727 -0.07250977 C147.72254425 -0.0803952 147.72254425 -0.0803952 149.22259521 -0.08843994 C152.4408801 -0.10156687 155.65866378 -0.09292278 158.87695312 -0.08276367 C161.13504632 -0.08478763 163.39313888 -0.08770175 165.65122986 -0.09146118 C170.37944779 -0.09587565 175.10749531 -0.08948585 179.83569336 -0.07543945 C185.85490412 -0.05841714 191.87371143 -0.06815037 197.89290714 -0.08615685 C202.55762179 -0.09707727 207.22224329 -0.09350957 211.88696098 -0.08577347 C214.10381558 -0.08379062 216.320679 -0.08616233 218.53752327 -0.09321213 C250.41940015 -0.17230913 278.5406525 7.83768757 301.77929688 30.50317383 C310.876851 39.73340917 325.02929688 56.68621889 325.02929688 70.31567383 C325.68929688 70.31567383 326.34929687 70.31567383 327.02929688 70.31567383 C327.11953125 69.64922852 327.20976563 68.9827832 327.30273438 68.29614258 C328.23570895 64.46894041 329.88160517 61.12075191 331.65429688 57.62817383 C332.01402588 56.91773926 332.37375488 56.20730469 332.74438477 55.4753418 C344.83576474 32.05910561 365.39519157 14.5164366 390.02929688 5.31567383 C401.42527464 1.68309059 412.50044597 0.17095785 424.40551758 0.12280273 C425.53164459 0.11462524 426.65777161 0.10644775 427.81802368 0.09802246 C431.53036988 0.0732877 435.24267823 0.05668543 438.95507812 0.04223633 C440.2269869 0.03691265 441.49889568 0.03158897 442.80934715 0.02610397 C448.15649658 0.00490537 453.50363293 -0.01422561 458.85081196 -0.02551842 C466.48164971 -0.04174854 474.11197786 -0.07494092 481.74262363 -0.13191926 C487.77770356 -0.17543049 493.81255301 -0.19127702 499.8477993 -0.19765091 C502.4045799 -0.20435411 504.96135333 -0.21955167 507.51803017 -0.24354172 C511.10070943 -0.27524917 514.68210916 -0.27522109 518.26489258 -0.26782227 C519.31197891 -0.2842276 520.35906525 -0.30063293 521.43788147 -0.3175354 C528.567129 -0.25751585 534.10420766 1.23626793 540.02929688 5.31567383 C543.96830229 9.44368863 546.12790485 13.68007995 546.20629883 19.40063477 C546.21913406 20.21868591 546.2319693 21.03673706 546.24519348 21.87957764 C546.25627388 23.20146088 546.25627388 23.20146088 546.26757812 24.55004883 C546.27564987 25.46143616 546.28372162 26.37282349 546.29203796 27.31182861 C546.30586828 29.241802 546.31659514 31.17179974 546.32446289 33.10180664 C546.34165117 36.04076027 546.38554356 38.97858155 546.4296875 41.91723633 C546.43981712 43.79483225 546.44833238 45.6724377 546.45507812 47.55004883 C546.47258621 48.4232074 546.4900943 49.29636597 546.50813293 50.19598389 C546.48434703 56.94954357 544.87781175 61.10946873 540.31835938 66.24145508 C539.76921875 66.69907227 539.22007812 67.15668945 538.65429688 67.62817383 C538.1103125 68.09868164 537.56632812 68.56918945 537.00585938 69.05395508 C531.10413917 72.82125869 525.00444975 72.60936594 518.25390625 72.6027832 C516.64307915 72.61303276 516.64307915 72.61303276 514.99971008 72.62348938 C512.67368149 72.63705329 510.34762327 72.64612202 508.02156067 72.65119934 C504.33958589 72.65949926 500.65785782 72.6800142 496.97595215 72.70373535 C487.83299964 72.76010483 478.68998718 72.7953465 469.54693604 72.83135986 C461.81692924 72.8626131 454.08704217 72.90181344 446.35713196 72.95161438 C442.73103224 72.97167222 439.10502545 72.9799999 435.47888184 72.98791504 C433.25414695 73.00088827 431.02941517 73.0144087 428.8046875 73.02856445 C427.29428642 73.0270916 427.29428642 73.0270916 425.75337219 73.02558899 C420.78041996 73.06965961 416.68959819 73.34851269 412.02929688 75.31567383 C413.49935684 75.32114227 413.49935684 75.32114227 414.99911499 75.32672119 C424.26736641 75.36377719 433.53528884 75.42166502 442.80328941 75.49957657 C447.56727789 75.53896565 452.3310839 75.57119598 457.09521484 75.58666992 C461.69903996 75.60189319 466.30236314 75.63643849 470.9059639 75.68398285 C472.65603886 75.69873843 474.40618551 75.70671148 476.15632248 75.70755768 C496.9085894 75.72766969 496.9085894 75.72766969 503.9493103 82.03594971 C509.50913693 87.85877086 510.33918933 94.18391106 510.33007812 101.93286133 C510.33650581 103.15684128 510.33650581 103.15684128 510.34306335 104.4055481 C510.34878414 106.12509233 510.34932358 107.84466075 510.3449707 109.56420898 C510.34181485 112.17580061 510.36528305 114.78625354 510.390625 117.39770508 C510.39289885 119.07608908 510.39360109 120.7544761 510.39257812 122.43286133 C510.40178787 123.20395233 510.41099762 123.97504333 510.42048645 124.76950073 C510.3681366 130.99570554 509.26069971 136.63612314 505.16210938 141.55786133 C504.49953125 142.09668945 503.83695313 142.63551758 503.15429688 143.19067383 C502.496875 143.7449707 501.83945313 144.29926758 501.16210938 144.87036133 C496.22368388 148.21691341 491.68814116 148.61786533 485.8425293 148.63452148 C484.62711456 148.64958992 484.62711456 148.64958992 483.387146 148.66496277 C480.71969282 148.69575376 478.05233983 148.71281849 475.38476562 148.72973633 C473.53102255 148.74845127 471.67728796 148.76802492 469.82356262 148.78842163 C464.95253508 148.83971441 460.08147992 148.87935544 455.21032715 148.91656494 C450.23650295 148.95662245 445.26279332 149.00770684 440.2890625 149.05786133 C430.53588781 149.15458684 420.78264839 149.23900247 411.02929688 149.31567383 C417.80815985 152.07019309 423.76229998 152.74584034 431.03759766 152.70043945 C432.63204208 152.70849861 432.63204208 152.70849861 434.25869751 152.71672058 C436.55193395 152.7264568 438.84520704 152.72945539 441.13846207 152.72636414 C444.77061674 152.72186686 448.40228921 152.73593962 452.03439331 152.75476074 C461.05004498 152.79767373 470.06568501 152.80879326 479.0814209 152.82098389 C486.71291249 152.83251829 494.34418294 152.85608993 501.97558212 152.89567566 C505.54909345 152.90923219 509.12230441 152.9050783 512.6958313 152.90026855 C514.89048647 152.90960967 517.08513833 152.91977861 519.27978516 152.9309082 C520.26906006 152.92475998 521.25833496 152.91861176 522.27758789 152.91227722 C527.96948483 152.96290626 531.96586677 153.67318104 537.02929688 156.31567383 C537.01358643 155.17090576 536.99787598 154.0261377 536.98168945 152.84667969 C536.92716265 148.57705797 536.89286438 144.30746672 536.86450195 140.03759766 C536.849467 138.19379491 536.82903354 136.35002761 536.80297852 134.50634766 C536.76636127 131.84764833 536.74951744 129.18942412 536.73632812 126.53051758 C536.72084427 125.71356918 536.70536041 124.89662079 536.68940735 124.05491638 C536.68703247 115.87694739 539.2089233 110.27140493 545.02929688 104.31567383 C551.07084685 100.74006262 556.09321477 100.15220168 563.01367188 100.11254883 C564.17530853 100.10399872 564.17530853 100.10399872 565.3604126 100.09527588 C566.99774824 100.08584531 568.63510269 100.07929963 570.27246094 100.07543945 C572.75685456 100.06576125 575.24041065 100.03473173 577.72460938 100.00317383 C579.32095867 99.99664012 580.91731384 99.99139109 582.51367188 99.98754883 C583.24728943 99.97520203 583.98090698 99.96285522 584.73675537 99.95013428 C592.96129999 99.98503466 599.16417445 102.5869496 605.02929688 108.31567383 C609.00564024 113.93740065 609.1722614 118.84986013 609.12695312 125.58129883 C609.12553818 126.37469666 609.12412323 127.16809448 609.12266541 127.98553467 C609.11708103 130.51228654 609.10453142 133.03894886 609.09179688 135.56567383 C609.08677985 137.28181838 609.0822173 138.99796432 609.078125 140.71411133 C609.06711671 144.91466651 609.04986284 149.115155 609.02929688 153.31567383 C616.66111685 153.27381096 624.29221898 153.20129584 631.92358398 153.1081543 C634.51596589 153.08004822 637.10843184 153.05878254 639.70092773 153.04467773 C643.44232899 153.02310517 647.18273065 152.97637874 650.92382812 152.92504883 C652.64325371 152.92320587 652.64325371 152.92320587 654.39741516 152.92132568 C664.62767152 152.7379896 673.7211573 150.59374082 681.30664062 143.38208008 C686.18318062 137.53244367 689.10662887 130.54394296 689.20629883 122.93359375 C689.22555168 121.64656807 689.22555168 121.64656807 689.24519348 120.33354187 C689.25258041 119.4137001 689.25996735 118.49385834 689.26757812 117.54614258 C689.27564987 116.59177811 689.28372162 115.63741364 689.29203796 114.65412903 C689.30585452 112.63597416 689.31658751 110.61779617 689.32446289 108.59960938 C689.3359892 106.54062024 689.35645121 104.48166112 689.38598633 102.42285156 C689.42873091 99.4429093 689.44484105 96.46385364 689.45507812 93.48364258 C689.47258621 92.5698735 689.4900943 91.65610443 689.50813293 90.71464539 C689.48796374 84.7341828 688.71665259 81.10781789 685.02929688 76.31567383 C680.47277546 73.48994397 677.00057215 72.93946354 671.68212891 72.9309082 C670.97233887 72.92553543 670.26254883 72.92016266 669.53125 72.91462708 C667.99917436 72.904889 666.46704381 72.90189286 664.93494034 72.90498352 C662.50404072 72.90948506 660.07386013 72.89539546 657.64303589 72.87658691 C652.4801344 72.83990037 647.31730947 72.82611507 642.15429688 72.81567383 C636.17474524 72.80356327 630.19554601 72.78186666 624.21615219 72.735672 C621.83203742 72.72217812 619.44837696 72.72625873 617.0642395 72.7310791 C601.13890554 72.67352481 601.13890554 72.67352481 594.78710938 67.48364258 C593.97886719 66.50331055 593.97886719 66.50331055 593.15429688 65.50317383 C592.6 64.85735352 592.04570313 64.2115332 591.47460938 63.54614258 C587.993806 58.17441629 587.72123789 52.88810204 587.72851562 46.69848633 C587.72208794 45.47450638 587.72208794 45.47450638 587.7155304 44.22579956 C587.70980961 42.50625533 587.70927017 40.78668691 587.71362305 39.06713867 C587.7167789 36.45554705 587.6933107 33.84509412 587.66796875 31.23364258 C587.6656949 29.55525858 587.66499266 27.87687156 587.66601562 26.19848633 C587.65680588 25.42739532 587.64759613 24.65630432 587.6381073 23.86184692 C587.69045715 17.63564212 588.79789404 11.99522451 592.89648438 7.07348633 C593.5590625 6.5346582 594.22164062 5.99583008 594.90429688 5.44067383 C595.56171875 4.88637695 596.21914062 4.33208008 596.89648438 3.76098633 C600.91042278 1.04091818 604.44794228 0.06601718 609.27079773 0.05497742 C610.30657455 0.04789261 611.34235138 0.0408078 612.40951538 0.0335083 C614.0982225 0.03722443 614.0982225 0.03722443 615.82104492 0.04101562 C617.01515488 0.03590469 618.20926483 0.03079376 619.43955994 0.02552795 C622.7084736 0.01401973 625.97722979 0.01155718 629.24615836 0.01409125 C631.98182245 0.01516329 634.71746333 0.01027125 637.45312244 0.00548583 C643.91399715 -0.0056034 650.37481374 -0.0060512 656.83569336 0 C663.48114913 0.00602895 670.12639259 -0.00624493 676.77181214 -0.02757007 C682.49178079 -0.04524456 688.21168225 -0.05117793 693.93167716 -0.04793233 C697.34135287 -0.04612733 700.75087741 -0.04867592 704.16052818 -0.06264687 C707.9707084 -0.07503422 711.78040326 -0.06820434 715.59057617 -0.05664062 C716.70625977 -0.06428436 717.82194336 -0.0719281 718.97143555 -0.07980347 C730.87995564 -0.00024161 741.43774358 3.17871041 750.29492188 11.42504883 C759.8380847 21.6751126 762.22264335 32.11067437 762.65429688 45.81567383 C762.71230469 47.33547852 762.71230469 47.33547852 762.77148438 48.88598633 C762.86493307 51.36237667 762.95069561 53.83877534 763.02929688 56.31567383 C763.90328125 54.8094043 763.90328125 54.8094043 764.79492188 53.27270508 C779.40488795 28.66150912 800.4227847 11.59266507 827.95507812 3.28833008 C829.30948707 2.94913066 830.66802758 2.6261988 832.02929688 2.31567383 C833.23175049 2.03965332 833.23175049 2.03965332 834.45849609 1.75805664 C843.52153662 -0.03442202 852.57764762 -0.0565697 861.78027344 -0.05493164 C864.49674701 -0.05927414 867.21154984 -0.09561489 869.92773438 -0.13354492 C901.15760399 -0.33608129 926.88876356 10.02324543 949.65429688 31.56567383 C958.99842632 41.20961491 970.12583107 56.5684208 972.02929688 70.31567383 C972.68929688 70.31567383 973.34929687 70.31567383 974.02929688 70.31567383 C974.11179687 69.49325195 974.19429687 68.67083008 974.27929688 67.82348633 C975.2061392 63.48856752 976.9307356 60.06786972 979.02929688 56.19067383 C979.43301514 55.44148682 979.8367334 54.6922998 980.25268555 53.92041016 C993.37967609 30.10622902 1014.96843361 11.71687866 1041.22192383 4.03344727 C1051.12714039 1.29464009 1060.24690555 0.16461628 1070.52905273 0.13867188 C1072.23769249 0.12881508 1072.23769249 0.12881508 1073.98085022 0.11875916 C1077.7352811 0.09911188 1081.48967223 0.08738551 1085.24414062 0.07739258 C1086.52957827 0.07331705 1087.81501591 0.06924152 1089.1394062 0.0650425 C1095.23801451 0.0463645 1101.33660304 0.03178686 1107.43523401 0.02343053 C1114.45401865 0.01365141 1121.4724885 -0.01270186 1128.49116224 -0.05307037 C1134.58924648 -0.08693131 1140.68719876 -0.09871905 1146.78537178 -0.10277367 C1149.3717011 -0.10764179 1151.95802698 -0.11926209 1154.54429436 -0.13781166 C1158.16316737 -0.16216401 1161.78121659 -0.16124514 1165.40014648 -0.15429688 C1166.46377411 -0.16710693 1167.52740173 -0.17991699 1168.6232605 -0.19311523 C1176.01389999 -0.14147329 1181.3016603 1.09896813 1187.05273438 6.06176758 C1187.72175781 6.89901367 1187.72175781 6.89901367 1188.40429688 7.75317383 C1188.86578125 8.30875977 1189.32726563 8.8643457 1189.80273438 9.43676758 C1193.17802274 14.60719339 1193.34904855 19.27988546 1193.36523438 25.27270508 C1193.37189117 26.13449875 1193.37854797 26.99629242 1193.38540649 27.88420105 C1193.3955086 29.70386631 1193.40022427 31.52356844 1193.39990234 33.34326172 C1193.40426628 36.10878499 1193.44058501 38.87269918 1193.47851562 41.63793945 C1193.48438639 43.41202258 1193.48835404 45.18611323 1193.49023438 46.96020508 C1193.50460541 47.77818069 1193.51897644 48.59615631 1193.53378296 49.43891907 C1193.48165919 56.08086023 1191.63058252 61.23926751 1187.31835938 66.33911133 C1186.76921875 66.78512695 1186.22007813 67.23114258 1185.65429688 67.69067383 C1184.83832031 68.38290039 1184.83832031 68.38290039 1184.00585938 69.08911133 C1178.05648545 72.78101531 1172.01807859 72.60937923 1165.25390625 72.6027832 C1163.64307915 72.61303276 1163.64307915 72.61303276 1161.99971008 72.62348938 C1159.67368149 72.63705329 1157.34762327 72.64612202 1155.02156067 72.65119934 C1151.33958589 72.65949926 1147.65785782 72.6800142 1143.97595215 72.70373535 C1134.83299964 72.76010483 1125.68998718 72.7953465 1116.54693604 72.83135986 C1108.81692924 72.8626131 1101.08704217 72.90181344 1093.35713196 72.95161438 C1089.73103224 72.97167222 1086.10502545 72.9799999 1082.47888184 72.98791504 C1080.25414695 73.00088827 1078.02941517 73.0144087 1075.8046875 73.02856445 C1074.29428642 73.0270916 1074.29428642 73.0270916 1072.75337219 73.02558899 C1067.78041996 73.06965961 1063.68959819 73.34851269 1059.02929688 75.31567383 C1059.99902939 75.32154007 1060.9687619 75.32740631 1061.96788025 75.33345032 C1071.13339465 75.3908118 1080.29867484 75.46364299 1089.46395016 75.55138874 C1094.1752493 75.59600246 1098.88646376 75.63527817 1103.59790039 75.66210938 C1108.14978502 75.68823244 1112.7013422 75.72869781 1117.25302315 75.77886009 C1118.98438996 75.79546815 1120.71581334 75.80702 1122.44724846 75.81328773 C1141.5226075 75.88928933 1141.5226075 75.88928933 1149.84179688 81.06567383 C1155.96964502 87.36860335 1157.18340799 93.74687178 1157.23242188 102.26489258 C1157.23812195 103.03694534 1157.24382202 103.80899811 1157.24969482 104.60444641 C1157.25912643 106.23758584 1157.26567149 107.87074415 1157.26953125 109.50390625 C1157.27919584 111.97731687 1157.31021868 114.44988133 1157.34179688 116.9230957 C1157.46700092 135.00775599 1157.46700092 135.00775599 1152.16210938 141.65551758 C1151.49953125 142.18274414 1150.83695313 142.7099707 1150.15429688 143.25317383 C1149.16816406 144.07108398 1149.16816406 144.07108398 1148.16210938 144.90551758 C1142.58671281 148.59181457 1137.68036655 148.59309762 1131.19018555 148.54272461 C1130.20434479 148.54301666 1129.21850403 148.54330872 1128.20278931 148.54360962 C1124.95085792 148.54221855 1121.69915689 148.52666763 1118.44726562 148.51098633 C1116.18996811 148.50725541 1113.93266898 148.50440881 1111.67536926 148.50241089 C1105.73893754 148.49478065 1099.80260394 148.47513728 1093.86621094 148.45300293 C1087.80665413 148.43253145 1081.74708144 148.42340638 1075.6875 148.41333008 C1063.80138922 148.3918909 1051.91535121 148.35776221 1040.02929688 148.31567383 C1040.03817932 149.06212158 1040.04706177 149.80856934 1040.05621338 150.57763672 C1040.13661906 157.63883915 1040.19739241 164.69988094 1040.23654556 171.76141357 C1040.25735203 175.39119114 1040.28554041 179.02058798 1040.33105469 182.65014648 C1040.37476347 186.15798646 1040.39848609 189.66546203 1040.40880585 193.17355347 C1040.41970941 195.15212026 1040.45089522 197.13054204 1040.48248291 199.10888672 C1040.4845134 207.31260522 1039.75754673 212.9064651 1034.31835938 219.33911133 C1033.76921875 219.78512695 1033.22007813 220.23114258 1032.65429688 220.69067383 C1031.83832031 221.38290039 1031.83832031 221.38290039 1031.00585938 222.08911133 C1025.64540824 225.41555729 1020.30021486 225.63455803 1014.19335938 225.65161133 C1013.3551767 225.65826813 1012.51699402 225.66492493 1011.65341187 225.67178345 C1009.88680198 225.68187108 1008.12015428 225.68660168 1006.35351562 225.6862793 C1003.66927495 225.69064944 1000.98668438 225.72700036 998.30273438 225.76489258 C996.57878161 225.77076243 994.85482111 225.7747307 993.13085938 225.77661133 C992.33789459 225.79098236 991.54492981 225.80535339 990.72793579 225.82015991 C984.91533825 225.77315072 981.01428539 224.20185174 976.02929688 221.31567383 C973.99448593 220.12114201 973.99448593 220.12114201 972.02929688 219.31567383 C969.94534919 220.1290599 969.94534919 220.1290599 968.02929688 221.62817383 C962.74417407 225.39588833 958.22898144 225.48316292 951.82617188 225.51879883 C951.02955139 225.5244989 950.23293091 225.53019897 949.41217041 225.53607178 C947.72775594 225.54550354 946.04332317 225.55204851 944.35888672 225.5559082 C941.80207462 225.5655876 939.24607587 225.59661667 936.68945312 225.62817383 C935.04753078 225.63470737 933.40560272 225.63995646 931.76367188 225.64379883 C930.63043488 225.66231903 930.63043488 225.66231903 929.4743042 225.68121338 C922.8511803 225.65388224 917.34911194 224.32618022 912.21679688 219.87817383 C908.09267908 215.04706441 905.89906998 211.97393438 905.91577148 205.47705078 C905.91595276 203.98534363 905.91595276 203.98534363 905.9161377 202.46350098 C905.92381165 200.89952576 905.92381165 200.89952576 905.93164062 199.30395508 C905.93264771 198.34372437 905.93365479 197.38349365 905.93469238 196.39416504 C905.93992637 192.80548916 905.95388763 189.2168303 905.96679688 185.62817383 C905.98742188 177.60504883 906.00804687 169.58192383 906.02929688 161.31567383 C879.29929687 161.31567383 852.56929687 161.31567383 825.02929688 161.31567383 C825.14763244 175.72002157 825.14763244 175.72002157 825.29956055 190.12402344 C825.30833291 191.94701609 825.31597507 193.77001467 825.32226562 195.59301758 C825.33761353 196.51860474 825.35296143 197.44419189 825.36877441 198.39782715 C825.37178764 205.98211871 823.99724613 212.15502806 819.96679688 218.62817383 C811.60400513 226.27923862 801.60664588 225.91798099 790.90625 225.78222656 C788.40232441 225.75315092 785.90050834 225.76167256 783.39648438 225.7746582 C781.7818909 225.76842213 780.16730401 225.7600322 778.55273438 225.74926758 C777.44773087 225.75367104 777.44773087 225.75367104 776.32040405 225.75816345 C769.78854477 225.64112319 764.27099656 224.25848023 759.21679688 219.87817383 C755.33694984 215.33321016 752.95272313 212.24437997 752.82397461 206.11962891 C752.80402939 205.27898392 752.78408417 204.43833893 752.76353455 203.57221985 C752.74682205 202.66900497 752.73010956 201.7657901 752.71289062 200.83520508 C752.69210953 199.90721603 752.67132843 198.97922699 752.6499176 198.02311707 C752.58452364 195.05821143 752.52558425 192.09321711 752.46679688 189.12817383 C752.423602 187.11839903 752.3799874 185.1086332 752.3359375 183.09887695 C752.22885261 178.17123351 752.12755642 173.24350084 752.02929688 168.31567383 C751.49602783 169.19465332 750.96275879 170.07363281 750.41333008 170.97924805 C749.69820955 172.15136521 748.98295157 173.32339851 748.26757812 174.49536133 C747.91796021 175.0724585 747.56834229 175.64955566 747.20812988 176.24414062 C739.07178233 189.54619931 728.21609661 200.97386441 715.02929688 209.31567383 C714.26359375 209.82614258 713.49789062 210.33661133 712.70898438 210.86254883 C696.41402932 221.29562236 677.81949642 225.43761375 658.65698242 225.49267578 C657.64935852 225.49924698 656.64173462 225.50581818 655.60357666 225.5125885 C652.2910554 225.53219248 648.97857912 225.54395335 645.66601562 225.55395508 C643.95998641 225.56006837 643.95998641 225.56006837 642.21949196 225.56630516 C636.20272634 225.58710791 630.18598317 225.60143629 624.16918945 225.61083984 C617.97567939 225.6219102 611.78252797 225.6563345 605.58914471 225.69601154 C600.80627296 225.72222048 596.02348633 225.73053535 591.24054909 225.73412132 C588.95813377 225.73897377 586.67572191 225.75054915 584.3933773 225.76915932 C581.191897 225.79364837 577.99134126 225.79256802 574.78979492 225.78564453 C573.3952282 225.80485962 573.3952282 225.80485962 571.9724884 225.82446289 C563.45629157 225.75779791 554.5904602 223.69643784 548.34179688 217.56567383 C547.69855469 216.95208008 547.0553125 216.33848633 546.39257812 215.70629883 C545.94269531 215.24739258 545.4928125 214.78848633 545.02929688 214.31567383 C544.30742188 215.05817383 543.58554688 215.80067383 542.84179688 216.56567383 C534.90712624 224.32401845 528.88041898 225.61642947 518.0612793 225.59033203 C516.9660495 225.59544296 515.8708197 225.60055389 514.74240112 225.6058197 C511.12313354 225.61971154 507.50405671 225.61875787 503.88476562 225.61645508 C501.35573761 225.62034487 498.82671024 225.62468013 496.29768372 225.62944031 C490.99083068 225.63690361 485.68404703 225.63675149 480.37719727 225.63134766 C474.28568823 225.62533875 468.19441198 225.63754195 462.10294265 225.65891773 C456.20511139 225.67883699 450.30736934 225.68168535 444.40950966 225.6781826 C441.91995004 225.67869207 439.43038643 225.6838586 436.9408474 225.69399452 C402.83651489 225.81570944 375.1324093 218.27490499 349.77929688 194.50317383 C342.66157419 187.07865275 337.06929498 178.22978936 332.02929688 169.31567383 C332.01527832 170.9638208 332.01527832 170.9638208 332.00097656 172.64526367 C331.96077469 176.76447475 331.89493582 180.88296241 331.82177734 185.00170898 C331.79374138 186.77635325 331.77244138 188.55111836 331.75830078 190.32592773 C331.57593002 211.93078367 331.57593002 211.93078367 325.68920898 218.90283203 C319.62555977 224.46377446 313.18281229 225.7761678 305.31445312 225.71411133 C304.49988144 225.71698151 303.68530975 225.71985168 302.84605408 225.72280884 C301.13246969 225.72483975 299.4188616 225.71937835 297.70532227 225.70678711 C295.10249215 225.69073977 292.50121948 225.70665764 289.8984375 225.72583008 C288.22460599 225.72384707 286.55077544 225.72000219 284.87695312 225.71411133 C284.10899918 225.72018402 283.34104523 225.72625671 282.54981995 225.73251343 C276.34240522 225.65292956 270.69219836 224.533212 265.78710938 220.44848633 C264.97886719 219.45461914 264.97886719 219.45461914 264.15429688 218.44067383 C263.6 217.78325195 263.04570313 217.12583008 262.47460938 216.44848633 C258.60280222 210.73495469 258.74088062 205.5026492 258.75805664 198.80908203 C258.75021652 197.22274208 258.75021652 197.22274208 258.74221802 195.60435486 C258.73198492 193.30995987 258.72619882 191.01554171 258.72433662 188.72112465 C258.72067075 185.08433353 258.70393615 181.44781457 258.68357849 177.81108093 C258.62819751 167.47159904 258.59752967 157.13207666 258.57299805 146.79248047 C258.55708092 140.46481447 258.52681483 134.1373406 258.48823357 127.8097744 C258.47661682 125.40377029 258.47065351 122.99773175 258.47055244 120.5916996 C258.47035937 117.2173432 258.45201624 113.84351259 258.42993164 110.46923828 C258.43450882 109.48446503 258.439086 108.49969177 258.44380188 107.4850769 C258.32251391 95.76743126 255.04418561 87.33056256 246.77929688 79.06567383 C238.38856837 73.72611932 230.61059023 72.7165691 220.80273438 72.70629883 C219.57390533 72.68976257 218.34507629 72.67322632 217.07901001 72.65618896 C213.18738694 72.60793892 209.29615404 72.58638801 205.40429688 72.56567383 C202.75193374 72.5374951 200.0995886 72.50756504 197.44726562 72.47583008 C190.97467967 72.40218583 184.50220239 72.35040888 178.02929688 72.31567383 C178.03298405 73.00220976 178.03667122 73.68874569 178.04047012 74.39608574 C178.12896048 91.13168707 178.19507403 107.86721391 178.23654556 124.60299492 C178.25713601 132.69643451 178.28518891 140.78971756 178.33105469 148.88305664 C178.37103065 155.94048552 178.39675524 162.99780097 178.40565085 170.05533993 C178.4108475 173.7893441 178.42298708 177.52302388 178.4522171 181.25692368 C178.48464892 185.43404029 178.48524942 189.61059955 178.48339844 193.7878418 C178.49777954 195.01423874 178.51216064 196.24063568 178.52697754 197.50419617 C178.4891697 205.40904682 177.76547286 213.10519906 172.30841446 219.25501823 C166.45429746 224.77836224 160.16892705 225.62557553 152.41210938 225.61645508 C151.59612274 225.6207402 150.78013611 225.62502533 149.93942261 225.62944031 C148.21987838 225.6351611 146.50030996 225.63570053 144.78076172 225.63134766 C142.1691701 225.6281918 139.55871717 225.65166 136.94726562 225.67700195 C135.26888162 225.67927581 133.59049461 225.67997804 131.91210938 225.67895508 C130.75547287 225.6927697 130.75547287 225.6927697 129.57546997 225.7068634 C123.34926516 225.65451355 117.70884756 224.54707666 112.78710938 220.44848633 C112.24828125 219.7859082 111.70945312 219.12333008 111.15429688 218.44067383 C110.6 217.78325195 110.04570313 217.12583008 109.47460938 216.44848633 C105.82839111 211.06785073 105.69886501 206.16480826 105.61523438 199.85864258 C105.58618515 198.50419792 105.58618515 198.50419792 105.55654907 197.12239075 C105.49695605 194.24941336 105.45044918 191.37639546 105.40429688 188.50317383 C105.36609843 186.55068277 105.32704561 184.59820824 105.28710938 182.64575195 C105.19127118 177.86919399 105.10716536 173.09255716 105.02929688 168.31567383 C104.64112793 169.05027832 104.25295898 169.78488281 103.85302734 170.54174805 C100.14510941 177.46647653 96.13008575 183.35017979 91.02929688 189.31567383 C90.42472656 190.0659082 89.82015625 190.81614258 89.19726562 191.58911133 C72.76872358 211.30336178 47.20996238 222.84218675 22.02929688 225.31567383 C19.19681716 225.46371978 16.36923185 225.50243574 13.53320312 225.51879883 C12.34548561 225.52734894 12.34548561 225.52734894 11.1337738 225.53607178 C9.46395171 225.54546253 7.79411158 225.55203198 6.12426758 225.5559082 C3.6293696 225.56552894 1.13532744 225.59657344 -1.359375 225.62817383 C-31.25478704 225.8241905 -57.47532312 216.23098326 -79.50195312 195.77270508 C-97.14866965 178.20975461 -108.95250275 154.34246203 -109.29989624 129.14793396 C-109.30212189 128.18106155 -109.30434753 127.21418915 -109.30664062 126.21801758 C-109.31329742 125.1848793 -109.31995422 124.15174103 -109.32681274 123.08729553 C-109.33687981 120.91156781 -109.34163162 118.73580958 -109.34130859 116.56005859 C-109.3456595 113.28600155 -109.38198314 110.01331939 -109.41992188 106.73950195 C-109.58336319 76.41164306 -99.83047731 50.99107848 -78.78320312 28.75317383 C-57.07447886 7.67530138 -29.55786017 -0.07040069 0 0 Z M-28.97070312 81.31567383 C-36.81303014 91.25894758 -38.15027197 100.24763779 -38.15820312 112.62817383 C-38.17657227 114.11994141 -38.17657227 114.11994141 -38.1953125 115.6418457 C-38.21762807 126.97071841 -36.2573038 135.36356443 -28.97070312 144.31567383 C-19.46580082 152.85104147 -8.85465371 153.82236013 3.46679688 153.75317383 C4.72556641 153.7731543 5.98433594 153.79313477 7.28125 153.8137207 C17.65637212 153.80830854 25.99861966 151.68464029 34.20507812 145.15942383 C42.92792759 136.34318197 43.26242353 127.17309057 43.32446289 115.46411133 C43.33593771 113.95913253 43.3563179 112.45419298 43.38598633 110.94946289 C43.58862816 100.65661647 43.20277134 91.52133169 36.71679688 83.00317383 C27.93677585 74.2231528 19.40632373 71.93753062 7.0625 71.85668945 C5.75216797 71.8637793 4.44183594 71.87086914 3.09179688 71.87817383 C1.13209961 71.84820312 1.13209961 71.84820312 -0.8671875 71.81762695 C-11.33954122 71.82289739 -21.20497324 73.77778932 -28.97070312 81.31567383 Z M835.65429688 79.69067383 C835.0484375 80.2346582 834.44257812 80.77864258 833.81835938 81.33911133 C831.46924657 83.83701466 831.46924657 83.83701466 828.02929688 89.31567383 C852.44929688 89.31567383 876.86929688 89.31567383 902.02929688 89.31567383 C896.64041544 80.33420477 890.15137021 74.84765404 880.02929688 72.31567383 C875.76403727 71.95012403 871.51323413 71.94402609 867.2331543 71.94506836 C865.23209228 71.94070716 863.23118878 71.90370513 861.23046875 71.86645508 C851.61974103 71.8376373 842.96016138 72.89526274 835.65429688 79.69067383 Z " fill="#FBFBFB" transform="translate(603.970703125,98.684326171875)"/>
<path d="M0 0 C8.18700085 -0.10956239 16.37356313 -0.20071396 24.56120682 -0.25035667 C26.83707127 -0.2665933 29.1129007 -0.28941979 31.38862228 -0.31965065 C45.36735805 -0.49752582 56.94754911 -0.33720176 68.15849304 9.09200287 C75.92373511 16.75107952 80.30194449 26.74736285 80.59599304 37.62715912 C79.97650989 54.51307077 70.24565782 64.45722285 59.15849304 76.06465912 C59.82493835 75.78751068 60.49138367 75.51036224 61.17802429 75.22481537 C72.53944001 70.75969954 83.55262086 69.41297822 95.04911804 74.29122162 C105.92577548 79.84842091 111.56564317 86.75206917 116.15849304 98.06465912 C117.15566253 102.07434265 117.32160185 105.89953934 117.39263916 110.02407074 C117.41229678 111.05812007 117.41229678 111.05812007 117.43235153 112.11305928 C117.47505947 114.41946165 117.5112335 116.72591917 117.54740906 119.03243256 C117.57673638 120.69123747 117.60645021 122.35003559 117.63652039 124.00882721 C117.71724604 128.53127925 117.79211427 133.05381094 117.86567426 137.57638454 C117.92842031 141.4004327 117.9940561 145.2244291 118.0596804 149.04842877 C118.21580797 158.14833653 118.36724033 167.24831419 118.51567078 176.34835052 C118.64953813 184.55188846 118.78811154 192.75532833 118.9316864 200.95870209 C119.40411591 227.9932554 119.82742202 255.02798004 120.15849304 282.06465912 C120.16925212 282.92686947 120.1800112 283.78907982 120.19109631 284.67741776 C120.31887753 294.9495031 120.42188902 305.22119225 120.47350883 315.49395752 C120.48787556 318.26172563 120.51112188 321.02917582 120.54280281 323.79679871 C120.58152806 327.54808202 120.59434304 331.29855162 120.59965515 335.05001068 C120.615725 336.11864098 120.63179485 337.18727127 120.64835167 338.2882843 C120.60533684 348.39171832 117.82670983 357.1981911 111.26005554 364.99434662 C103.40546963 372.73213571 93.8651209 376.85464438 82.86161804 377.15450287 C71.34070886 376.62713731 61.34185294 372.83486567 53.47099304 364.21700287 C45.31628982 353.96246357 44.03219063 343.995622 43.87724304 331.23873138 C43.85919617 330.05250687 43.84114929 328.86628235 43.82255554 327.64411163 C43.77394489 324.39979605 43.72929981 321.15545366 43.68617249 317.91106153 C43.63964473 314.49873957 43.58732893 311.08650701 43.53544617 307.674263 C43.4155253 299.72807734 43.30211595 291.78180572 43.18974304 283.83551025 C43.04708552 273.75429751 42.90262791 263.67311793 42.74997711 253.59205097 C42.69889323 250.20523422 42.64947127 246.81841062 42.60404968 243.43151283 C42.36950444 223.72683132 42.36950444 223.72683132 41.15849304 204.06465912 C40.35508987 204.85831879 39.55168671 205.65197845 38.72393799 206.46968842 C37.33361172 207.84256951 35.942878 209.21504385 34.5488739 210.58419037 C31.9436523 213.17425112 29.48106305 215.82942027 27.09989929 218.62715912 C21.2567219 225.3756401 14.7554299 231.5216528 8.41044617 237.79219818 C0.82847925 245.20357198 0.82847925 245.20357198 -6.31025696 253.03340912 C-12.14122263 259.88407568 -18.77030522 266.04494316 -25.16230774 272.36495209 C-33.80846661 280.91576852 -33.80846661 280.91576852 -41.94502258 289.94551849 C-47.20507616 295.82312727 -52.98135077 301.24978968 -58.58955383 306.79219818 C-66.17152075 314.20357198 -66.17152075 314.20357198 -73.31025696 322.03340912 C-79.14122263 328.88407568 -85.77030522 335.04494316 -92.16230774 341.36495209 C-100.95192563 350.04553259 -100.95192563 350.04553259 -109.23017883 359.20870209 C-130.56541745 383.78301783 -157.52713906 403.00438579 -190.84150696 406.06465912 C-227.39654215 408.29910338 -257.17199834 398.85901637 -284.55635071 374.66622162 C-305.22375762 355.0109626 -317.98722012 327.24675589 -319.16181946 298.75215912 C-319.88936271 269.17805331 -312.82883984 240.66572015 -292.84150696 218.06465912 C-292.21244446 217.32731537 -291.58338196 216.58997162 -290.93525696 215.83028412 C-285.28189421 209.35066066 -279.1742618 203.33067273 -273.0448761 197.30464935 C-269.78099715 194.080661 -266.60500612 190.84799829 -263.63056946 187.35372162 C-257.85488856 180.6426011 -251.38668557 174.55651441 -245.09346008 168.33712006 C-237.51149316 160.92574625 -237.51149316 160.92574625 -230.37275696 153.09590912 C-224.54179129 146.24524256 -217.91270869 140.08437507 -211.52070618 133.76436615 C-202.69045149 125.04847195 -202.69045149 125.04847195 -194.37226868 115.84883881 C-185.18837505 105.14454939 -176.43206172 96.59484404 -162.84150696 92.06465912 C-149.42441999 91.10138108 -138.65796317 91.93903486 -127.90400696 100.87715912 C-118.38993963 110.08154614 -115.58076039 120.15930265 -115.34541321 133.18184662 C-116.05586318 138.74237634 -117.93909396 143.8096552 -119.84150696 149.06465912 C-116.98304688 146.23563036 -114.13055712 143.40065133 -111.27900696 140.56465912 C-110.47914368 139.77317474 -109.6792804 138.98169037 -108.85517883 138.16622162 C-105.30513943 134.63067217 -101.8124276 131.09994438 -98.56416321 127.28340912 C-92.81517547 120.59307154 -86.36302883 114.5331352 -80.09346008 108.33712006 C-71.45275165 99.79129025 -71.45275165 99.79129025 -63.31758118 90.76778412 C-60.97746024 88.06770412 -58.45178267 85.56700345 -55.90400696 83.06465912 C-54.56293884 81.7401474 -54.56293884 81.7401474 -53.19477844 80.38887787 C-52.41819885 79.62188568 -51.64161926 78.85489349 -50.84150696 78.06465912 C-67.12378447 77.98577318 -83.39747734 78.1962897 -99.6769886 78.45723438 C-112.92842651 78.66843176 -126.18048655 78.83781556 -139.43251038 79.00746918 C-142.28202025 79.04409016 -145.13150356 79.08215759 -147.98097229 79.12184906 C-155.26733202 79.22249405 -162.55327841 79.30504941 -169.8401947 79.35176849 C-171.98363446 79.36850736 -174.12703252 79.39227004 -176.27030945 79.42354584 C-190.48687693 79.6245326 -202.93434985 79.41721502 -213.84150696 69.06465912 C-222.18040027 60.3156563 -225.48148556 51.00547254 -225.31221008 38.98409271 C-224.85105477 28.69395165 -221.08689628 20.36698666 -213.84150696 13.06465912 C-205.17513529 6.05486823 -196.58050323 3.01023079 -185.47312927 2.830513 C-184.73995542 2.81740792 -184.00678158 2.80430284 -183.25139034 2.79080063 C-180.79726924 2.74807264 -178.34309611 2.71191245 -175.88887024 2.6757431 C-174.12517163 2.64642107 -172.3614795 2.61670724 -170.59779358 2.58663177 C-165.79295979 2.50593584 -160.98805106 2.43108195 -156.18310404 2.3574779 C-151.09986354 2.27886413 -146.01669711 2.19569557 -140.93351746 2.11325836 C-132.34348955 1.97470053 -123.75340732 1.84000232 -115.1632843 1.70748138 C-106.45487819 1.57308854 -97.74655247 1.43451805 -89.0382843 1.29146576 C-62.70247088 0.85938786 -36.36652215 0.45933062 -10.02920532 0.13005066 C-6.68611474 0.088234 -3.34304956 0.04497463 0 0 Z M-242.84150696 286.06465912 C-241.84150696 288.06465912 -241.84150696 288.06465912 -241.84150696 288.06465912 Z M-242.84150696 295.06465912 C-241.84150696 297.06465912 -241.84150696 297.06465912 -241.84150696 297.06465912 Z " fill="#FEFCFC" transform="translate(323.8415069580078,4.935340881347656)"/>
<path d="M0 0 C5.6926757 4.02512423 9.50082262 9.32470566 11.70703125 15.9140625 C11.92993005 18.34613799 12.04904697 20.78852613 12.10180664 23.23022461 C12.12001937 23.95587868 12.1382321 24.68153275 12.15699673 25.42917633 C12.21533917 27.84980617 12.2600922 30.27048703 12.3046875 32.69140625 C12.34321577 34.42124563 12.38249962 36.15106833 12.42248535 37.88087463 C12.52801332 42.56132185 12.62120875 47.24194139 12.71178055 51.92269897 C12.78907713 55.8428441 12.87341974 59.76282578 12.95756435 63.6828289 C13.60264947 93.84542015 14.03995212 124.01008972 14.38085938 154.17749023 C14.41648458 157.31884976 14.45227644 160.4602073 14.48828125 163.6015625 C14.50124992 164.73525363 14.50124992 164.73525363 14.51448059 165.89184761 C14.66358151 178.76520171 14.90150671 191.6351868 15.20257568 204.50595093 C15.32724602 209.9208142 15.43649999 215.33601435 15.5473938 220.75117493 C15.64577108 225.43352927 15.77068915 230.1141631 15.91682434 234.79525757 C15.97869688 236.92722726 16.02663272 239.05895012 16.06811523 241.19140625 C16.11634802 243.65944569 16.18590562 246.12724521 16.28540039 248.59375 C16.40496873 257.656347 13.769436 265.31997591 7.69799805 272.18603516 C1.79709467 277.84837002 -4.07778772 280.010588 -12.16796875 280.4140625 C-20.20336785 280.18100553 -26.24147327 277.03650113 -32.16796875 271.7265625 C-40.07856294 262.76456023 -39.91099587 252.28475836 -39.98046875 240.9765625 C-40.0053734 239.20814571 -40.03205337 237.43975324 -40.06030273 235.67138672 C-40.12096813 231.67795902 -40.16975965 227.68458263 -40.21191406 223.69091797 C-40.286984 216.93449921 -40.40584116 210.17915744 -40.52936935 203.42347336 C-41.21138539 165.91764893 -41.43406446 128.42600427 -41.29296875 90.9140625 C-45.98686638 94.90666349 -50.4012319 98.93396943 -54.49609375 103.5546875 C-58.41420322 107.91457595 -62.43223842 112.14118535 -66.58984375 116.2734375 C-67.11928589 116.79965698 -67.64872803 117.32587646 -68.19421387 117.86804199 C-69.808546 119.4686695 -71.42529007 121.06681766 -73.04296875 122.6640625 C-81.13076974 130.54243646 -81.13076974 130.54243646 -88.74609375 138.8671875 C-94.41523547 145.51507466 -100.83167436 151.50510732 -107.04101562 157.64160156 C-114.62298255 165.05297536 -114.62298255 165.05297536 -121.76171875 172.8828125 C-127.59268442 179.73347906 -134.22176702 185.89434655 -140.61376953 192.21435547 C-149.2599284 200.76517191 -149.2599284 200.76517191 -157.39648438 209.79492188 C-162.65653795 215.67253066 -168.43281256 221.09919306 -174.04101562 226.64160156 C-181.62298255 234.05297536 -181.62298255 234.05297536 -188.76171875 241.8828125 C-194.59268442 248.73347906 -201.22176702 254.89434655 -207.61376953 261.21435547 C-213.55565919 267.09526976 -219.44710722 272.93179227 -224.87353516 279.29931641 C-241.23799948 297.91551301 -267.87024019 307.6061215 -291.91796875 309.7265625 C-313.96376468 310.97744528 -333.17141494 305.49977151 -352.29296875 294.9140625 C-353.28039062 294.37007813 -354.2678125 293.82609375 -355.28515625 293.265625 C-379.74116209 278.73379544 -394.39835201 253.91152244 -401.29296875 226.9140625 C-407.18387643 202.19667658 -401.23298426 174.31055457 -388.99609375 152.6796875 C-378.37228317 135.42817858 -363.04662815 121.52931544 -348.73217773 107.38964844 C-342.63064697 101.36429264 -342.63064697 101.36429264 -336.8828125 95.00390625 C-331.19452097 88.34492233 -324.76919022 82.33776964 -318.54492188 76.18652344 C-310.9485556 68.75847382 -310.9485556 68.75847382 -303.79296875 60.9140625 C-298.14484934 54.27821777 -291.73795484 48.30690071 -285.54492188 42.18652344 C-283.8337931 40.49368006 -282.12503323 38.7985039 -280.41796875 37.1015625 C-279.87235291 36.55975845 -279.32673706 36.01795441 -278.7645874 35.45973206 C-275.81550671 32.50960406 -273.00511479 29.50323714 -270.30859375 26.31640625 C-267.82614617 23.4015965 -265.42405442 21.35317137 -262.04296875 19.4765625 C-261.2128125 19.00347656 -260.38265625 18.53039062 -259.52734375 18.04296875 C-253.95152102 15.22581356 -248.41317169 15.25141279 -242.29296875 15.9140625 C-233.24140973 18.91878113 -227.21789623 24.92052636 -222.29296875 32.9140625 C-221.13056947 36.40126034 -221.01522174 39.2996513 -220.91796875 42.9765625 C-220.86898437 44.22566406 -220.82 45.47476563 -220.76953125 46.76171875 C-221.51603403 57.71219721 -229.69556243 64.93080374 -237.16796875 72.0390625 C-239.10761119 73.91179854 -241.04050038 75.79141948 -242.97265625 77.671875 C-243.90045898 78.57325195 -244.82826172 79.47462891 -245.78417969 80.40332031 C-247.8498064 82.47055514 -249.78478211 84.55702489 -251.67578125 86.78125 C-257.36719035 93.46055057 -263.80443188 99.47818444 -270.04101562 105.64160156 C-277.62298255 113.05297536 -277.62298255 113.05297536 -284.76171875 120.8828125 C-290.59268442 127.73347906 -297.22176702 133.89434655 -303.61376953 140.21435547 C-312.45111962 148.94846224 -312.45111962 148.94846224 -320.76708984 158.17431641 C-322.91660169 160.62510384 -325.23995737 162.87280056 -327.58251953 165.13745117 C-338.24671996 175.44774465 -346.33668224 186.24326623 -347.49609375 201.60546875 C-347.73091739 215.98841692 -343.55470125 229.55218243 -333.60546875 240.2890625 C-323.04818366 249.92920893 -310.75970783 254.61091135 -296.546875 254.19140625 C-279.29056853 252.72058061 -267.43182473 244.01947334 -255.91796875 231.9765625 C-254.88158723 230.91856938 -253.84382958 229.8619225 -252.8046875 228.80664062 C-248.71269179 224.63018722 -244.67489838 220.42308955 -240.87890625 215.97265625 C-235.17635592 209.33797476 -228.76295081 203.33160343 -222.54492188 197.18652344 C-214.96295495 189.77514964 -214.96295495 189.77514964 -207.82421875 181.9453125 C-201.99325308 175.09464594 -195.36417048 168.93377845 -188.97216797 162.61376953 C-180.3260091 154.06295309 -180.3260091 154.06295309 -172.18945312 145.03320312 C-166.92939955 139.15559434 -161.15312494 133.72893194 -155.54492188 128.18652344 C-147.96295495 120.77514964 -147.96295495 120.77514964 -140.82421875 112.9453125 C-134.99325308 106.09464594 -128.36417048 99.93377845 -121.97216797 93.61376953 C-113.3260091 85.06295309 -113.3260091 85.06295309 -105.18945312 76.03320312 C-99.92939955 70.15559434 -94.15312494 64.72893194 -88.54492188 59.18652344 C-80.9485556 51.75847382 -80.9485556 51.75847382 -73.79296875 43.9140625 C-68.14484934 37.27821777 -61.73795484 31.30690071 -55.54492188 25.18652344 C-46.84665929 16.61384821 -46.84665929 16.61384821 -38.69677734 7.52441406 C-28.14337821 -4.58171127 -14.37010225 -7.9478154 0 0 Z " fill="#CE2E2E" transform="translate(418.29296875,91.0859375)"/>
<path d="M0 0 C7.39337783 -0.08858401 14.78666139 -0.15691811 22.18043661 -0.20190686 C26.02565343 -0.2256567 29.87035709 -0.25733326 33.71528625 -0.31074715 C37.27244424 -0.35978679 40.82896542 -0.38464769 44.38644791 -0.39112973 C46.28776916 -0.40056987 48.18891776 -0.43482901 50.0899353 -0.4700985 C58.71863637 -0.45055965 65.51968885 1.14878339 72.03186798 7.06455326 C77.83485644 13.09683314 80.00593668 18.82073042 80.26660156 27.12030029 C79.78074869 41.47995182 70.0616716 49.15568523 60.31762695 58.65838623 C57.70260614 61.22487354 55.24172269 63.85174922 52.86816406 66.64373779 C46.84048883 73.61018997 40.11718535 79.9479411 33.57080078 86.42059326 C24.92464191 94.9714097 24.92464191 94.9714097 16.78808594 104.00115967 C11.52803236 109.87876845 5.75175775 115.30543086 0.14355469 120.84783936 C-7.43841223 128.25921316 -7.43841223 128.25921316 -14.57714844 136.08905029 C-20.40811411 142.93971686 -27.0371967 149.10058434 -33.42919922 155.42059326 C-42.07535809 163.9714097 -42.07535809 163.9714097 -50.21191406 173.00115967 C-55.47196764 178.87876845 -61.24824225 184.30543086 -66.85644531 189.84783936 C-74.43841223 197.25921316 -74.43841223 197.25921316 -81.57714844 205.08905029 C-87.40811411 211.93971686 -94.0371967 218.10058434 -100.42919922 224.42059326 C-109.07535809 232.9714097 -109.07535809 232.9714097 -117.21191406 242.00115967 C-122.47196764 247.87876845 -128.24824225 253.30543086 -133.85644531 258.84783936 C-139.49344921 264.4246053 -145.0832732 269.95870367 -150.22998047 275.99725342 C-154.26698136 280.55999838 -158.58692392 284.86303768 -162.87817383 289.1852417 C-163.99269369 290.31134565 -165.10271539 291.44191881 -166.20825195 292.57684326 C-174.24846988 300.82974022 -181.46015729 308.08137686 -193.67089844 308.49530029 C-201.34721663 308.39344324 -206.65641704 306.16063144 -212.40136719 301.10076904 C-218.43678011 294.82349986 -221.10394625 288.78524172 -221.54589844 280.12030029 C-221.28120753 272.99570325 -218.6036351 267.58010828 -213.88964844 262.31561279 C-213.26823975 261.62032471 -212.64683105 260.92503662 -212.0065918 260.2086792 C-211.38018799 259.51951416 -210.75378418 258.83034912 -210.10839844 258.12030029 C-209.27610718 257.20450195 -209.27610718 257.20450195 -208.42700195 256.27020264 C-206.68703097 254.37526588 -204.93243794 252.49520275 -203.17089844 250.62030029 C-202.1761853 249.56081177 -202.1761853 249.56081177 -201.16137695 248.47991943 C-193.755533 240.65416937 -186.11142649 233.0661374 -178.4465332 225.49530029 C-172.40116769 219.52253316 -172.40116769 219.52253316 -166.70605469 213.21795654 C-161.01429344 206.55694919 -154.58733172 200.54668743 -148.36035156 194.39276123 C-140.76398529 186.96471162 -140.76398529 186.96471162 -133.60839844 179.12030029 C-127.96027903 172.48445557 -121.55338453 166.5131385 -115.36035156 160.39276123 C-107.77838464 152.98138743 -107.77838464 152.98138743 -100.63964844 145.15155029 C-94.80868277 138.30088373 -88.17960017 132.14001625 -81.78759766 125.82000732 C-73.14143879 117.26919089 -73.14143879 117.26919089 -65.00488281 108.23944092 C-59.74482924 102.36183214 -53.96855462 96.93516973 -48.36035156 91.39276123 C-42.63843337 85.7319884 -36.96125502 80.11351893 -31.74072266 73.97967529 C-28.56068216 70.35730191 -25.09790067 67.00686697 -21.67089844 63.62030029 C-20.32168005 62.28258986 -18.97265289 60.94468653 -17.6237793 59.60662842 C-16.45198568 58.44451904 -15.28019206 57.28240967 -14.10839844 56.12030029 C-29.54059935 56.0651512 -44.96708197 56.09097424 -60.39746094 56.33905029 C-61.08815422 56.35014139 -61.7788475 56.36123249 -62.49047089 56.37265968 C-65.35129232 56.4189 -68.2121058 56.46559936 -71.07291031 56.51287556 C-86.08408702 56.75957624 -101.09623318 56.94550963 -116.10839844 57.12030029 C-116.91921371 57.12978951 -117.73002899 57.13927872 -118.56541443 57.14905548 C-128.9140241 57.26872804 -139.26231934 57.35884893 -149.61151123 57.40740967 C-152.59282641 57.42212639 -155.57382244 57.44641549 -158.55499268 57.47918701 C-162.69789096 57.52423998 -166.8402651 57.53677822 -170.98339844 57.54608154 C-172.20094818 57.56354935 -173.41849792 57.58101715 -174.67294312 57.59901428 C-183.07853397 57.57757317 -188.41503909 56.39395971 -194.85839844 50.68280029 C-195.60089844 49.83717529 -196.34339844 48.99155029 -197.10839844 48.12030029 C-197.83027344 47.31592529 -198.55214844 46.51155029 -199.29589844 45.68280029 C-204.25074749 38.67766888 -203.93475088 30.35772933 -203.10839844 22.12030029 C-200.99424977 15.2468588 -196.01464547 10.0646106 -190.10839844 6.12030029 C-184.51783911 3.27683868 -179.94282277 2.61337778 -173.71582031 2.46624756 C-172.29643787 2.41759096 -172.29643787 2.41759096 -170.84838104 2.36795139 C-167.60192878 2.26540137 -164.35573067 2.18943214 -161.10839844 2.12030029 C-159.3356102 2.08158876 -159.3356102 2.08158876 -157.52700806 2.04209518 C-148.58238056 1.85763948 -139.63738604 1.73006536 -130.69164848 1.61504817 C-127.54821162 1.57421336 -124.40480664 1.53114803 -121.26139879 1.48814589 C-113.76756792 1.38568117 -106.27369549 1.28683391 -98.77978516 1.19036865 C-92.08474007 1.10413581 -85.3897625 1.01401909 -78.69482422 0.91986084 C-58.29010379 0.63358255 -37.88540706 0.38817862 -17.47959614 0.19397557 C-11.65295194 0.13769933 -5.82648867 0.07039486 0 0 Z " fill="#CE2E2E" transform="translate(313.1083984375,15.87969970703125)"/>
<path d="M0 0 C2.97541591 0.01390609 5.94769646 -0.02041369 8.92285156 -0.05834961 C32.37255867 -0.15386752 52.67003502 6.74909246 70.97753906 21.57641602 C71.74324219 22.1784082 72.50894531 22.78040039 73.29785156 23.40063477 C90.03734719 37.31133061 101.90147307 59.88473282 103.97753906 81.57641602 C104.13510668 85.32826908 104.15504097 89.07769731 104.17041016 92.83251953 C104.18267639 94.5020871 104.18267639 94.5020871 104.19519043 96.2053833 C104.21991415 99.87202426 104.23652105 103.53862705 104.25097656 107.20532227 C104.25630024 108.46015852 104.26162392 109.71499477 104.26710892 111.00785637 C104.28830091 116.27952146 104.30743404 121.55118087 104.31873131 126.82287693 C104.33498973 134.35663934 104.36825982 141.88988793 104.42513216 149.42345673 C104.46852397 155.37521962 104.48447749 161.32686791 104.4908638 167.27879143 C104.497585 169.80538545 104.51282937 172.3319717 104.53675461 174.85846138 C104.56830157 178.38927751 104.5684587 181.91878752 104.56103516 185.44970703 C104.57744049 186.49247299 104.59384583 187.53523895 104.61074829 188.60960388 C104.57142007 193.17553399 104.52919949 196.53528211 101.62857056 200.20933533 C97.36555549 204.01574075 93.42892489 203.76152788 87.98535156 203.81469727 C87.20239716 203.82276901 86.41944275 203.83084076 85.61276245 203.8391571 C83.95687055 203.85297767 82.30095039 203.86370889 80.64501953 203.87158203 C78.11859014 203.88880658 75.59346602 203.93270981 73.06738281 203.97680664 C71.45671533 203.98693329 69.84603675 203.99544948 68.23535156 204.00219727 C67.10699387 204.0284594 67.10699387 204.0284594 65.95584106 204.05525208 C62.30312916 204.04021555 60.19629837 203.71557442 57.08642578 201.73730469 C53.55045214 198.11413929 52.72820962 196.05221664 52.75048828 191.09521484 C52.75072998 189.95862427 52.75097168 188.82203369 52.7512207 187.65100098 C52.76145264 186.45720825 52.77168457 185.26341553 52.78222656 184.03344727 C52.78424072 182.93560913 52.78625488 181.837771 52.78833008 180.70666504 C52.7988041 176.60070627 52.82672662 172.494807 52.85253906 168.38891602 C52.89378906 159.21079102 52.93503906 150.03266602 52.97753906 140.57641602 C19.31753906 140.57641602 -14.34246094 140.57641602 -49.02246094 140.57641602 C-48.90382356 158.45191881 -48.90382356 158.45191881 -48.75219727 176.32714844 C-48.7434343 178.57038953 -48.73578991 180.8136354 -48.72949219 183.05688477 C-48.71414429 184.21885376 -48.69879639 185.38082275 -48.6829834 186.57800293 C-48.68262085 187.69404907 -48.6822583 188.81009521 -48.68188477 189.95996094 C-48.67522293 190.92592697 -48.6685611 191.89189301 -48.66169739 192.88713074 C-49.19402924 196.8553593 -50.99286391 199.47449254 -53.69067383 202.36181641 C-57.14122194 204.15916504 -60.52967101 204.02444637 -64.33105469 204.01000977 C-65.13479019 204.01525162 -65.9385257 204.02049347 -66.76661682 204.02589417 C-68.46362149 204.03230697 -70.16067065 204.03098694 -71.85766602 204.02246094 C-74.44791214 204.01395558 -77.03594848 204.04271209 -79.62597656 204.07446289 C-81.27766861 204.07607524 -82.92936455 204.07549673 -84.58105469 204.07250977 C-85.35202988 204.08374374 -86.12300507 204.09497772 -86.91734314 204.10655212 C-90.56094988 204.05956729 -92.79467381 203.71618446 -95.92504883 201.79541016 C-99.20120593 198.32934195 -100.27199271 195.67003557 -100.27642822 190.91746521 C-100.2848877 189.51948448 -100.2848877 189.51948448 -100.29351807 188.09326172 C-100.2894696 187.0776416 -100.28542114 186.06202148 -100.28125 185.015625 C-100.28475464 183.94031021 -100.28825928 182.86499542 -100.29187012 181.75709534 C-100.30068492 178.19550146 -100.29483615 174.63410575 -100.28808594 171.07250977 C-100.28943335 168.59351056 -100.29137452 166.11451161 -100.29388428 163.63551331 C-100.29721396 157.76613134 -100.290208 151.89682112 -100.27958274 146.02744967 C-100.26998167 140.04546174 -100.2795454 134.06355759 -100.29034805 128.08157253 C-100.29760146 122.95726823 -100.29526204 117.83300186 -100.29009247 112.70869637 C-100.28876343 110.25884036 -100.29037742 107.80898086 -100.29505157 105.35912895 C-100.30016936 101.92031727 -100.29233122 98.48176154 -100.28125 95.04296875 C-100.28529846 94.04151825 -100.28934692 93.04006775 -100.29351807 92.00827026 C-100.25400383 85.3399956 -99.42315422 79.09141965 -98.02246094 72.57641602 C-97.83120762 71.68184409 -97.6399543 70.78727217 -97.44290543 69.865592 C-92.41148067 47.59614922 -77.11831058 26.94907523 -58.02246094 14.63891602 C-39.43697341 3.22565468 -21.49776091 -0.13971069 0 0 Z M-27.39746094 68.95141602 C-28.00332031 69.49540039 -28.60917969 70.03938477 -29.23339844 70.59985352 C-31.58251125 73.09775685 -31.58251125 73.09775685 -35.02246094 78.57641602 C-10.60246094 78.57641602 13.81753906 78.57641602 38.97753906 78.57641602 C33.58865763 69.59494696 27.0996124 64.10839623 16.97753906 61.57641602 C12.71227946 61.21086622 8.46147632 61.20476828 4.18139648 61.20581055 C2.18033447 61.20144935 0.17943097 61.16444732 -1.82128906 61.12719727 C-11.43201678 61.09837949 -20.09159643 62.15600493 -27.39746094 68.95141602 Z " fill="#333333" transform="translate(1467.0224609375,109.423583984375)"/>
<path d="M0 0 C2.62648238 -0.00337576 5.25296322 -0.00823467 7.87944031 -0.01449585 C13.34317935 -0.0235114 18.80657681 -0.01180307 24.27026367 0.01220703 C30.57205221 0.03958149 36.87303578 0.03045521 43.17480594 0.003075 C49.27835496 -0.02237144 55.38154842 -0.01965721 61.4851284 -0.00501633 C64.06750795 -0.00168612 66.64990819 -0.00575573 69.23226357 -0.01741409 C72.82898433 -0.0301077 76.42414739 -0.01077145 80.02075195 0.01708984 C81.61272652 0.00190811 81.61272652 0.00190811 83.23686218 -0.01358032 C91.27498216 0.10181872 91.27498216 0.10181872 94.96818542 3.01699829 C98.66222567 7.16734778 98.5073754 10.88971581 98.5625 16.18359375 C98.57057175 16.91978439 98.57864349 17.65597504 98.58695984 18.41447449 C98.6007791 19.97201192 98.6115109 21.52957937 98.61938477 23.0871582 C98.63090245 24.67481398 98.65135122 26.2624311 98.6809082 27.84985352 C98.72370835 30.14886679 98.73977003 32.44673089 98.75 34.74609375 C98.76750809 35.44942337 98.78501617 36.15275299 98.80305481 36.87739563 C98.78096419 41.9407866 97.51681339 44.77819401 94.32421875 48.6640625 C91.15626683 50.77603045 90.39948692 50.91504426 86.77879333 50.92234802 C85.38070686 50.93259003 85.38070686 50.93259003 83.95437622 50.94303894 C82.42319656 50.93920952 82.42319656 50.93920952 80.86108398 50.93530273 C79.2459214 50.94314285 79.2459214 50.94314285 77.59812927 50.95114136 C75.25568032 50.96139535 72.9132085 50.96716419 70.57073784 50.96902275 C66.8584973 50.97268021 63.14652542 50.98939247 59.43434143 51.00978088 C50.20792339 51.05825063 40.98146159 51.08977051 31.75494385 51.11108398 C23.97003349 51.12918704 16.18535528 51.15859853 8.40056038 51.20512581 C5.9443163 51.21674691 3.48803846 51.2227059 1.03176689 51.22280693 C-2.41464882 51.22299998 -5.86054945 51.24134207 -9.30688477 51.26342773 C-10.81681 51.25656197 -10.81681 51.25656197 -12.35723877 51.2495575 C-24.74447281 51.37511995 -34.0901844 55.23499936 -42.9765625 63.91015625 C-46.7051086 67.95225467 -49.25784889 71.71176785 -51.67578125 76.6640625 C-49.71926384 76.65406975 -49.71926384 76.65406975 -47.72322083 76.64387512 C-35.43682318 76.58308562 -23.15045601 76.53810017 -10.86394215 76.50862598 C-4.54717051 76.49296368 1.76947982 76.47171478 8.08618164 76.43774414 C14.18104051 76.40517132 20.27578263 76.38721374 26.37072182 76.37943077 C28.69716543 76.37388357 31.02360259 76.36305139 33.34999657 76.34687233 C36.606112 76.32512609 39.86174366 76.32209446 43.11791992 76.32348633 C44.08177109 76.3127005 45.04562225 76.30191467 46.03868103 76.290802 C50.99177848 76.3137439 54.27641416 76.48262979 58.32421875 79.6640625 C58.91340088 80.0470752 59.50258301 80.43008789 60.10961914 80.82470703 C62.16729298 83.94079038 61.77107569 87.47920002 61.7578125 91.09375 C61.76305435 91.9210965 61.7682962 92.74844299 61.7736969 93.6008606 C61.78011889 95.35092039 61.77877778 97.10102335 61.77026367 98.85107422 C61.76177109 101.52259761 61.7904819 104.19197013 61.82226562 106.86328125 C61.82387824 108.56510353 61.82329895 110.26692958 61.8203125 111.96875 C61.83154648 112.76473602 61.84278046 113.56072205 61.85435486 114.38082886 C61.80626423 118.22936984 61.59147264 120.22612514 59.54321289 123.58251953 C56.16419781 126.75222825 53.51802806 127.9090349 48.8949585 127.9425354 C47.57410248 127.95928062 47.57410248 127.95928062 46.2265625 127.97636414 C45.2684668 127.97852432 44.31037109 127.98068451 43.32324219 127.98291016 C41.80080902 127.99797859 41.80080902 127.99797859 40.24761963 128.01335144 C36.89295009 128.04424138 33.53836058 128.0612349 30.18359375 128.078125 C27.85759795 128.09683195 25.53160896 128.11640501 23.20562744 128.1368103 C17.08349626 128.18818734 10.96134306 128.22778335 4.83911133 128.26495361 C-1.40809602 128.30495826 -7.65521134 128.35606676 -13.90234375 128.40625 C-26.16009166 128.50307531 -38.41789146 128.58745904 -50.67578125 128.6640625 C-49.76086704 130.25532458 -48.83727391 131.84159823 -47.91015625 133.42578125 C-47.39678711 134.30967529 -46.88341797 135.19356934 -46.35449219 136.10424805 C-40.61821639 144.85131782 -30.98771942 149.81480801 -21.0334816 152.23950768 C-16.63137616 153.03220175 -12.22535914 152.92921199 -7.76513672 152.90356445 C-6.7007135 152.90557861 -5.63629028 152.90759277 -4.53961182 152.90966797 C-2.24033746 152.91319964 0.05894663 152.91246353 2.35821915 152.90789223 C5.99835613 152.90228004 9.63817678 152.91148786 13.27828979 152.9250946 C23.62352991 152.96215274 33.96866014 152.9807371 44.31396484 152.96948242 C50.65163738 152.96363382 56.9888616 152.98187482 63.32644272 153.01537132 C65.73855207 153.02332563 68.15071026 153.02204803 70.56280899 153.01134682 C73.93315779 152.99703111 77.3020927 153.01327845 80.67236328 153.03637695 C81.6668045 153.02460922 82.66124573 153.01284149 83.68582153 153.00071716 C88.15048119 153.06073284 91.34287641 153.18438648 94.92745972 156.01579285 C98.67335687 160.15477621 98.50716604 163.86960968 98.5625 169.18359375 C98.57057175 169.91978439 98.57864349 170.65597504 98.58695984 171.41447449 C98.6007791 172.97201192 98.6115109 174.52957937 98.61938477 176.0871582 C98.63090245 177.67481398 98.65135122 179.2624311 98.6809082 180.84985352 C98.72370835 183.14886679 98.73977003 185.44673089 98.75 187.74609375 C98.76750809 188.44942337 98.78501617 189.15275299 98.80305481 189.87739563 C98.78096419 194.9407866 97.51681339 197.77819401 94.32421875 201.6640625 C91.11664477 203.80244515 90.28540658 203.91686807 86.59811401 203.93148804 C85.62568756 203.94001801 84.65326111 203.94854797 83.65136719 203.95733643 C82.58547363 203.95643005 81.51958008 203.95552368 80.42138672 203.95458984 C79.29733429 203.96130707 78.17328186 203.96802429 77.01516724 203.97494507 C73.28220235 203.99400734 69.54941685 203.99785497 65.81640625 204 C63.21582974 204.00642772 60.61525395 204.01315606 58.01467896 204.02017212 C52.54867389 204.03297588 47.08271725 204.03593661 41.61669922 204.03466797 C35.3394502 204.03347387 29.06254912 204.05442413 22.78538787 204.0861553 C16.71615793 204.11572115 10.64709122 204.1226366 4.57779312 204.12144852 C2.01286536 204.12379242 -0.55206558 204.13254675 -3.11694717 204.14811325 C-20.31398401 204.242614 -36.7811782 203.89427869 -52.48828125 195.9765625 C-53.18493896 195.6369751 -53.88159668 195.2973877 -54.59936523 194.94750977 C-61.2327705 191.59686594 -66.96792454 187.42782758 -72.67578125 182.6640625 C-73.41183594 182.07882812 -74.14789062 181.49359375 -74.90625 180.890625 C-92.07064134 166.74743214 -102.84084654 144.53423598 -105.67578125 122.6640625 C-106.13847736 116.81005984 -106.15038991 110.94863037 -106.12182617 105.07958984 C-106.11333609 102.43116847 -106.14215568 99.78492779 -106.17382812 97.13671875 C-106.28894072 69.50407593 -97.40530786 46.42019495 -78.31640625 26.21875 C-71.48999134 19.61449652 -63.86933046 14.52617558 -55.61328125 9.9140625 C-54.70630493 9.38498291 -54.70630493 9.38498291 -53.78100586 8.84521484 C-36.95791067 -0.11840957 -18.54118128 -0.08470067 0 0 Z " fill="#333333" transform="translate(1041.67578125,109.3359375)"/>
<path d="M0 0 C2.86775565 0.00851327 5.7335135 -0.02036904 8.60107422 -0.05200195 C35.91306187 -0.15632975 58.054639 8.40402864 78.00341797 27.44604492 C78.61701172 27.98487305 79.23060547 28.52370117 79.86279297 29.07885742 C93.37663181 41.41488462 102.17353095 61.49579902 104.00341797 79.44604492 C104.15339599 82.89936866 104.16727559 86.34916986 104.17138672 89.80541992 C104.17471512 90.79044495 104.17804352 91.77546997 104.18147278 92.79034424 C104.18651772 94.86795589 104.18888186 96.94557559 104.1887207 99.02319336 C104.19090138 102.17209508 104.20906733 105.32064281 104.22802734 108.46948242 C104.23096308 110.49812707 104.23294667 112.52677337 104.23388672 114.55541992 C104.24107224 115.48288025 104.24825775 116.41034058 104.25566101 117.36590576 C104.18212067 138.81946431 94.72735201 159.48947696 79.78076172 174.69995117 C78.40597656 176.05926758 78.40597656 176.05926758 77.00341797 177.44604492 C76.20033203 178.25944336 75.39724609 179.0728418 74.56982422 179.91088867 C68.11217225 186.11405189 60.88694771 190.35629571 53.00341797 194.44604492 C52.08689453 194.93073242 51.17037109 195.41541992 50.22607422 195.91479492 C36.26373016 202.80148493 22.29146958 204.10392473 6.98632812 203.9675293 C4.1382892 203.94611913 1.29278636 203.96742603 -1.55517578 203.99291992 C-29.31289966 204.03554146 -51.67211615 195.84667144 -71.99658203 176.44604492 C-72.61017578 175.9072168 -73.22376953 175.36838867 -73.85595703 174.81323242 C-89.30594371 160.70980422 -98.18259817 137.49866305 -99.27148438 116.98706055 C-99.47930001 111.93219804 -99.53560837 106.87967968 -99.55908203 101.82104492 C-99.56784363 101.00541077 -99.57660522 100.18977661 -99.58563232 99.34942627 C-99.79099895 71.44129359 -91.75899388 47.38748811 -72.48486328 26.84838867 C-63.14122194 17.82744765 -52.8072883 11.70661704 -40.99658203 6.44604492 C-39.90023437 5.95040039 -38.80388672 5.45475586 -37.67431641 4.9440918 C-25.57901485 0.01732797 -12.86865955 -0.05806564 0 0 Z M-28.99658203 70.44604492 C-36.83890905 80.38931867 -38.17615087 89.37800888 -38.18408203 101.75854492 C-38.20245117 103.2503125 -38.20245117 103.2503125 -38.22119141 104.7722168 C-38.24350698 116.10108951 -36.28318271 124.49393552 -28.99658203 133.44604492 C-19.49167973 141.98141257 -8.88053262 142.95273122 3.44091797 142.88354492 C4.6996875 142.90352539 5.95845703 142.92350586 7.25537109 142.9440918 C17.63049321 142.93867963 25.97274076 140.81501139 34.17919922 134.28979492 C42.90204869 125.47355306 43.23654463 116.30346167 43.29858398 104.59448242 C43.3100588 103.08950363 43.330439 101.58456407 43.36010742 100.07983398 C43.56274925 89.78698756 43.17689243 80.65170278 36.69091797 72.13354492 C27.91089695 63.3535239 19.38044482 61.06790171 7.03662109 60.98706055 C5.72628906 60.99415039 4.41595703 61.00124023 3.06591797 61.00854492 C1.1062207 60.97857422 1.1062207 60.97857422 -0.89306641 60.94799805 C-11.36542012 60.95326848 -21.23085215 62.90816042 -28.99658203 70.44604492 Z " fill="#333333" transform="translate(603.99658203125,109.553955078125)"/>
<path d="M0 0 C1.026129 -0.00571014 2.052258 -0.01142029 3.10948181 -0.01730347 C4.23986374 -0.01842133 5.37024567 -0.01953918 6.53488159 -0.02069092 C7.72201248 -0.02565582 8.90914337 -0.03062073 10.13224792 -0.03573608 C13.39496509 -0.04785952 16.65764639 -0.05530748 19.92038202 -0.05974674 C21.96039132 -0.0626778 24.00039499 -0.06678281 26.04040146 -0.07125092 C32.427353 -0.08493206 38.81429169 -0.09459404 45.20125687 -0.09845281 C52.56528379 -0.10292649 59.92912445 -0.1204395 67.29309475 -0.1494534 C72.98918285 -0.17111332 78.68521872 -0.18115948 84.38134754 -0.18249393 C87.7809578 -0.18353946 91.18039311 -0.18939244 94.57995987 -0.20731354 C98.37887854 -0.22439392 102.1773462 -0.22248819 105.97628784 -0.21600342 C107.65364265 -0.22982559 107.65364265 -0.22982559 109.36488342 -0.243927 C119.93451374 -0.1874925 126.20025425 2.47614902 133.93673706 9.79669189 C140.73797731 17.01924792 141.29161284 24.2004888 141.3366394 33.69390869 C141.34890564 35.12929993 141.34890564 35.12929993 141.36141968 36.59368896 C141.38621366 39.75900667 141.40278293 42.92427938 141.41720581 46.08966064 C141.42252949 47.17689737 141.42785316 48.2641341 141.43333817 49.3843174 C141.46005586 55.14977945 141.47942702 60.91522004 141.49386597 66.6807251 C141.50714768 71.42246029 141.53489574 76.16375929 141.57589722 80.90533447 C141.62561199 86.65593902 141.65003533 92.40615124 141.65709305 98.15696144 C141.66374634 100.33313088 141.67881049 102.50929363 141.70298386 104.68533897 C141.87627392 121.24187044 140.35351238 136.82084146 132.26876831 151.64044189 C131.92708618 152.29222412 131.58540405 152.94400635 131.23336792 153.61553955 C119.19591498 176.10737683 99.59834206 192.67480611 75.14376831 200.14044189 C74.37205795 200.38800735 73.6003476 200.63557281 72.80525208 200.89064026 C61.27857103 204.08961009 49.58159149 203.5747874 37.71408081 203.53887939 C35.35046296 203.54090351 32.98684571 203.54381776 30.62322998 203.5475769 C25.69284055 203.55197913 20.76261512 203.54563365 15.83224487 203.53155518 C9.52080912 203.51440814 3.20975461 203.52435289 -3.1016674 203.54227257 C-7.97274647 203.5531191 -12.84373525 203.54966099 -17.71481705 203.54188919 C-20.04238048 203.53989253 -22.36995219 203.54232764 -24.69750595 203.54932785 C-27.94708735 203.55696272 -31.19605163 203.54531149 -34.44558716 203.52862549 C-35.40052567 203.53469818 -36.35546417 203.54077087 -37.33934021 203.54702759 C-45.92327291 203.46554238 -51.62799516 201.08557676 -57.85623169 195.14044189 C-61.71464825 189.68543917 -62.01069491 184.96598303 -62.04910278 178.42193604 C-62.05728027 177.64909775 -62.06545776 176.87625946 -62.07388306 176.08000183 C-62.09864899 173.5285417 -62.11522693 170.97713672 -62.12966919 168.42559814 C-62.13765471 167.11655423 -62.13765471 167.11655423 -62.14580154 165.78106499 C-62.17248985 161.16527053 -62.19188189 156.54950277 -62.20632935 151.93365479 C-62.21968879 148.11472734 -62.24758396 144.29633166 -62.2883606 140.4776001 C-62.33763218 135.86286766 -62.36244276 131.24861883 -62.36955643 126.63363457 C-62.37627306 124.87653762 -62.39150593 123.11945164 -62.41544724 121.36250496 C-62.4470495 118.90387662 -62.44714428 116.44712019 -62.43972778 113.98834229 C-62.46433578 112.9026445 -62.46433578 112.9026445 -62.48944092 111.79501343 C-62.44049357 107.82775966 -61.98198537 106.28927402 -59.38226318 103.21244812 C-58.54867279 102.52868607 -57.7150824 101.84492401 -56.85623169 101.14044189 C-56.36123169 100.64544189 -56.36123169 100.64544189 -55.85623169 100.14044189 C-53.17574337 100.01454364 -50.52244776 99.95177186 -47.84060669 99.93731689 C-46.62863617 99.92876678 -46.62863617 99.92876678 -45.3921814 99.92004395 C-43.6772493 99.9105774 -41.96229888 99.90405343 -40.24734497 99.90020752 C-37.63096961 99.89053336 -35.01539016 99.85953958 -32.39920044 99.82794189 C-30.73384053 99.82140887 -29.06847498 99.81615958 -27.40310669 99.81231689 C-26.62272034 99.79997009 -25.84233398 99.78762329 -25.03829956 99.77490234 C-20.45582507 99.79355828 -17.4730588 100.25677824 -13.85623169 103.14044189 C-11.73692094 106.31940803 -11.60927139 107.07018722 -11.62918091 110.70367432 C-11.62933197 111.62440231 -11.62948303 112.54513031 -11.62963867 113.49375916 C-11.63996124 114.48446915 -11.65028381 115.47517914 -11.66091919 116.49591064 C-11.66374908 117.51268387 -11.66657898 118.52945709 -11.66949463 119.57704163 C-11.68069786 122.82746097 -11.70580283 126.0776057 -11.73123169 129.32794189 C-11.7412613 131.53041188 -11.75038718 133.73288617 -11.75857544 135.93536377 C-11.78063764 141.33715032 -11.81411661 146.73877649 -11.85623169 152.14044189 C-2.80592187 152.12549501 6.24376299 152.08358183 15.29377365 152.00835133 C19.49726073 151.97423235 23.70039019 151.94899508 27.90402222 151.94488525 C31.9698067 151.94056956 36.03478656 151.91184026 40.10031891 151.86701012 C41.64219708 151.85413855 43.18417206 151.84969026 44.72609711 151.8542881 C58.28943529 151.88527827 68.91662526 149.27397676 78.94845581 139.61309814 C84.68562201 133.15112981 89.35087105 125.44043355 89.45016479 116.65093994 C89.46615219 115.57599777 89.48213959 114.5010556 89.49861145 113.39353943 C89.50397415 112.24138443 89.50933685 111.08922943 89.51486206 109.90216064 C89.52389053 108.7074263 89.53291901 107.51269196 89.54222107 106.28175354 C89.55671683 103.75591535 89.56560862 101.23003967 89.56930542 98.7041626 C89.58119346 94.85219607 89.6303831 91.00183578 89.68087769 87.15020752 C89.69034326 84.69253302 89.69757765 82.23484871 89.70236206 79.77716064 C89.73166054 78.05803719 89.73166054 78.05803719 89.7615509 76.30418396 C89.71174764 67.41820095 87.56475562 62.56142921 81.33126831 56.32794189 C73.05194668 50.6460545 65.22858298 50.73154069 55.56105995 50.79088211 C53.09301895 50.80472328 50.62577261 50.79812483 48.1577301 50.78604126 C41.14675433 50.75521126 34.13597089 50.7600038 27.12496948 50.78009033 C22.82318301 50.79100996 18.52199954 50.77782192 14.22029686 50.75019455 C12.58606529 50.74476082 10.95177312 50.74880056 9.31759071 50.76259232 C7.0341259 50.78165433 4.75263877 50.77023895 2.46920776 50.7522583 C1.17207352 50.75464508 -0.12506073 50.75703186 -1.46150208 50.75949097 C-5.70009008 49.98655931 -7.14147976 48.39642795 -9.85623169 45.14044189 C-10.18623169 44.81044189 -10.51623169 44.48044189 -10.85623169 44.14044189 C-10.99457658 41.3872832 -11.06939962 38.66103418 -11.09451294 35.90606689 C-11.10258469 35.0758905 -11.11065643 34.24571411 -11.11897278 33.39038086 C-11.13283176 31.62837829 -11.14354576 29.86634866 -11.15139771 28.10430908 C-11.16857286 25.41530953 -11.21243646 22.72755137 -11.25662231 20.03887939 C-11.26675226 18.32795095 -11.27526742 16.61701203 -11.28201294 14.90606689 C-11.29952103 14.10380676 -11.31702911 13.30154663 -11.33506775 12.47497559 C-11.31970108 8.49783866 -11.14647621 6.59609859 -8.95462036 3.15509033 C-5.85856058 0.18258477 -4.18351424 0.01390747 0 0 Z " fill="#333333" transform="translate(1213.8562316894531,109.85955810546875)"/>
<path d="M0 0 C1.00572556 -0.00365067 2.01145111 -0.00730133 3.0476532 -0.01106262 C6.3664143 -0.01915535 9.68468497 -0.00556244 13.00341797 0.0090332 C15.32022094 0.00955221 17.63702436 0.00903295 19.9538269 0.00752258 C24.81091891 0.00761227 29.66784482 0.01802936 34.52490234 0.03613281 C40.725007 0.05874354 46.92486744 0.05937727 53.12500191 0.05261517 C57.91222266 0.04925813 62.69938864 0.05593909 67.48659897 0.0657444 C69.77095121 0.06957255 72.05530957 0.0707546 74.33966446 0.06915855 C102.89970187 0.06582412 102.89970187 0.06582412 116.24560547 5.93481445 C117.05650635 6.28632568 117.86740723 6.63783691 118.70288086 7 C142.72065847 17.73376574 160.24481177 36.17896969 170.18701172 60.60668945 C173.82657175 70.97473501 175.17165872 81.14653733 175.14526367 92.09838867 C175.1503746 93.21362411 175.15548553 94.32885956 175.16075134 95.47789001 C175.17454056 99.12765003 175.17369979 102.77721915 175.17138672 106.42700195 C175.17527718 108.97763132 175.17961258 111.52826005 175.18437195 114.07888794 C175.19180943 119.40621314 175.19169878 124.73346915 175.1862793 130.06079102 C175.18021895 136.21114896 175.19261524 142.36127932 175.21384937 148.51159847 C175.23359194 154.44951798 175.23663982 160.3873669 175.23311424 166.3253212 C175.23362778 168.84433657 175.23887154 171.36335557 175.24892616 173.88235092 C175.26123971 177.39595006 175.25453094 180.90901704 175.24291992 184.42260742 C175.25056366 185.46268448 175.2582074 186.50276154 175.26608276 187.57435608 C175.22032267 193.82811446 174.58272783 197.46967274 170.20239258 202.15771484 C166.75184447 203.95506348 163.3633954 203.82034481 159.56201172 203.8059082 C158.75827621 203.81115005 157.95454071 203.81639191 157.12644958 203.8217926 C155.42944492 203.82820541 153.73239576 203.82688537 152.03540039 203.81835938 C149.44515427 203.80985402 146.85711792 203.83861053 144.26708984 203.87036133 C142.61539779 203.87197367 140.96370185 203.87139517 139.31201172 203.8684082 C138.54103653 203.87964218 137.77006134 203.89087616 136.97572327 203.90245056 C133.33211653 203.85546573 131.09839259 203.5120829 127.96801758 201.59130859 C124.67887695 198.11150424 123.62013214 195.4531095 123.6257782 190.68212891 C123.62184052 189.74317276 123.61790283 188.80421661 123.61384583 187.83680725 C123.62238838 186.30170753 123.62238838 186.30170753 123.63110352 184.7355957 C123.62908936 183.65213364 123.6270752 182.56867157 123.625 181.45237732 C123.62145326 179.09793351 123.6222231 176.74348017 123.62677574 174.38903809 C123.63236863 170.655162 123.62320856 166.92159663 123.60957336 163.18774414 C123.57245572 152.57069051 123.55359229 141.95377658 123.56518555 131.33666992 C123.57105828 124.84149029 123.55266529 118.34674512 123.51929665 111.85165405 C123.51137176 109.38309951 123.51257979 106.91449726 123.52332115 104.44595337 C124.01347859 86.67672713 124.01347859 86.67672713 117.87060547 70.37231445 C117.39407028 69.59307617 116.9175351 68.81383789 116.42655945 68.01098633 C111.07514914 59.75955895 101.11267384 54.12164949 91.6566925 51.83753967 C88.45453708 51.3028387 85.39951318 51.20979535 82.15258789 51.16699219 C81.49836853 51.15709259 80.84414917 51.14719299 80.17010498 51.13699341 C78.02213069 51.10557531 75.87413434 51.08069953 73.72607422 51.0559082 C72.23105822 51.03532163 70.73604782 51.01432472 69.24104309 50.99293518 C65.31695098 50.9378903 61.39280789 50.88840392 57.46862793 50.84008789 C53.45999646 50.78974401 49.45143853 50.73412538 45.44287109 50.67895508 C37.5855115 50.57158877 29.72809015 50.47009653 21.87060547 50.37231445 C21.87337085 51.11499667 21.87613623 51.85767889 21.8789854 52.62286663 C21.94523151 70.69195755 21.99487936 88.76102425 22.02604198 106.83021069 C22.04151246 115.56832935 22.06260542 124.30636695 22.09692383 133.04443359 C22.12682067 140.66032077 22.14617916 148.27614925 22.15287095 155.89209348 C22.15678274 159.92488802 22.16597966 163.95751463 22.18779564 167.99025536 C22.20816534 171.78642168 22.21443833 175.58235096 22.20992851 179.37856674 C22.2107535 180.77134171 22.21671644 182.16412465 22.22822189 183.55685234 C22.24317163 185.45993684 22.23776591 187.36314866 22.23136902 189.26628113 C22.2341344 190.33095202 22.23689978 191.39562292 22.23974895 192.49255657 C21.71535234 196.58347336 19.98191225 199.18294134 17.20239258 202.15771484 C13.75184447 203.95506348 10.3633954 203.82034481 6.56201172 203.8059082 C5.75827621 203.81115005 4.95454071 203.81639191 4.12644958 203.8217926 C2.42944492 203.82820541 0.73239576 203.82688537 -0.96459961 203.81835938 C-3.55484573 203.80985402 -6.14288208 203.83861053 -8.73291016 203.87036133 C-10.38460221 203.87197367 -12.03629815 203.87139517 -13.68798828 203.8684082 C-14.45896347 203.87964218 -15.22993866 203.89087616 -16.02427673 203.90245056 C-19.76752481 203.85418084 -21.91550872 203.50980367 -25.09448242 201.46630859 C-28.61806203 197.8404247 -28.26030429 195.36638642 -28.27656555 190.3901062 C-28.28024224 189.66308601 -28.28391893 188.93606581 -28.28770703 188.1870147 C-28.29876569 185.73819481 -28.30259143 183.28941732 -28.30639648 180.84057617 C-28.31265962 179.08973556 -28.31930628 177.33889628 -28.3263092 175.58805847 C-28.34373579 170.82126748 -28.35427603 166.05448653 -28.36251473 161.28767157 C-28.36766263 158.30960891 -28.37373854 155.33154938 -28.38002586 152.35348892 C-28.39908476 143.03629909 -28.41331297 133.7191172 -28.42163783 124.40191162 C-28.43140611 113.6464823 -28.45771204 102.89125901 -28.49813873 92.13590229 C-28.52830813 83.82412665 -28.54310759 75.51241004 -28.54641885 67.20058072 C-28.54876889 62.23599245 -28.55772298 57.27162411 -28.58288002 52.30709457 C-28.60617936 47.63343844 -28.61038647 42.96014671 -28.60011864 38.28644753 C-28.59962358 36.57403285 -28.60593521 34.86160013 -28.61967468 33.14924049 C-28.75211726 15.6594366 -28.75211726 15.6594366 -22.19970703 8.1652832 C-21.55775391 7.63547852 -20.91580078 7.10567383 -20.25439453 6.55981445 C-19.61759766 6.01711914 -18.98080078 5.47442383 -18.32470703 4.9152832 C-12.11949563 0.55396914 -7.38370432 -0.05995209 0 0 Z " fill="#333333" transform="translate(749.12939453125,109.627685546875)"/>
<path d="M0 0 C1.1541037 -0.00671722 2.3082074 -0.01343445 3.49728394 -0.02035522 C7.28233225 -0.03923398 11.06720257 -0.04325317 14.85229492 -0.04541016 C17.49403454 -0.05184102 20.13577346 -0.0585696 22.7775116 -0.06558228 C28.29911452 -0.07832349 33.82066952 -0.08135164 39.34228516 -0.08007812 C45.71818478 -0.078873 52.09374796 -0.10006428 58.46956235 -0.13156545 C64.62160805 -0.16087261 70.77349199 -0.16805447 76.92560387 -0.16685867 C79.5367337 -0.1692203 82.14786598 -0.17807524 84.75895119 -0.19352341 C88.4020884 -0.21307454 92.04434929 -0.20738917 95.6875 -0.1953125 C96.76655106 -0.20655151 97.84560211 -0.21779053 98.95735168 -0.22937012 C106.2637392 -0.16768878 106.2637392 -0.16768878 110.1660614 2.19589233 C113.60705625 6.08307788 113.21294242 9.65176192 113.25854492 14.62255859 C113.26661667 15.45132004 113.27468842 16.28008148 113.28300476 17.13395691 C113.29684588 18.88998319 113.30756792 20.64603638 113.31542969 22.40209961 C113.33263018 25.08222744 113.37651293 27.76111762 113.4206543 30.44091797 C113.43078247 32.14728911 113.43929818 33.85367073 113.44604492 35.56005859 C113.46355301 36.35918167 113.4810611 37.15830475 113.49909973 37.98164368 C113.48370048 41.95022411 113.30741968 43.84005112 111.11865234 47.27368164 C108.15569994 50.1214943 106.60260455 50.41561816 102.60855103 50.42182922 C101.68075836 50.4258374 100.7529657 50.42984558 99.79705811 50.43397522 C98.26519867 50.43318214 98.26519867 50.43318214 96.70239258 50.43237305 C95.62897614 50.43584747 94.55555969 50.4393219 93.44961548 50.44290161 C91.1109634 50.4502693 88.77230428 50.45560926 86.43364334 50.45919228 C82.72518489 50.46635037 79.01685932 50.48201492 75.30844116 50.50053406 C64.76137525 50.5530147 54.21442355 50.600925 43.66723633 50.61645508 C37.21977011 50.62657182 30.77263383 50.65599758 24.32529831 50.69777489 C21.8735034 50.71004468 19.42166178 50.71521354 16.96983719 50.71297646 C13.52356433 50.71060723 10.07822605 50.73291666 6.63208008 50.76049805 C5.13058411 50.75059593 5.13058411 50.75059593 3.59875488 50.74049377 C-9.21554653 50.90761277 -19.0227118 55.27925701 -27.98364258 64.31005859 C-31.44352883 68.0877632 -33.71872004 71.67543105 -35.97973633 76.29052734 C-34.66508392 76.27942429 -33.35043152 76.26832123 -31.99594116 76.25688171 C-19.60689224 76.1555255 -7.21792743 76.08057109 5.17144203 76.03146648 C11.54098413 76.00537254 17.91019154 75.96997691 24.27954102 75.91333008 C30.42629664 75.859005 36.57273033 75.82910529 42.71970749 75.81614113 C45.06489505 75.80690229 47.41006499 75.78886099 49.75511551 75.76187706 C53.04001191 75.72558169 56.32357793 75.72058242 59.60864258 75.72290039 C60.57824921 75.70492401 61.54785583 75.68694763 62.54684448 75.66842651 C67.00476044 75.70246611 70.05947157 75.83829849 73.60848999 78.70100403 C77.40198426 82.77408183 77.20650113 85.80730764 77.25854492 91.14990234 C77.26661667 91.93190002 77.27468842 92.71389771 77.28300476 93.51959229 C77.29684587 95.17726424 77.30756791 96.83496469 77.31542969 98.49267578 C77.33260358 101.01699614 77.37648233 103.5399932 77.4206543 106.06396484 C77.43078497 107.6759344 77.4392999 109.28791507 77.44604492 110.89990234 C77.46355301 111.65011658 77.4810611 112.40033081 77.49909973 113.17327881 C77.47782274 118.36486573 76.44961037 121.38906402 73.02026367 125.29052734 C68.21517525 128.05847542 63.00457893 127.55690784 57.63037109 127.51757812 C56.58600891 127.51787018 55.54164673 127.51816223 54.46563721 127.51846313 C51.01891732 127.5170715 47.57241448 127.50151787 44.12573242 127.48583984 C41.73391335 127.48210913 39.34209275 127.47926243 36.95027161 127.4772644 C30.65873995 127.46963258 24.3673008 127.44998783 18.07580566 127.42785645 C11.65430961 127.4073884 5.23279858 127.39826063 -1.1887207 127.38818359 C-13.78576535 127.36674162 -26.38274592 127.33299611 -38.97973633 127.29052734 C-38.97085388 128.12911285 -38.96197144 128.96769836 -38.95281982 129.83169556 C-38.87256422 137.74705533 -38.81171632 145.66227781 -38.77248764 153.57795143 C-38.75164143 157.64719674 -38.7233788 161.71610494 -38.67797852 165.78515625 C-38.63441373 169.71443353 -38.61057691 173.64338721 -38.60022736 177.57288742 C-38.59285495 179.06958483 -38.57845813 180.56626516 -38.5568161 182.06282425 C-38.52763875 184.16466336 -38.523786 186.2651774 -38.52563477 188.3671875 C-38.51675232 189.56187653 -38.50786987 190.75656555 -38.49871826 191.98745728 C-39.08417389 196.00768251 -40.45486743 198.1421675 -42.97973633 201.29052734 C-46.80177975 203.83855629 -49.97362832 203.63188757 -54.40942383 203.66162109 C-55.23677032 203.67064957 -56.06411682 203.67967804 -56.91653442 203.6889801 C-58.66656882 203.70348349 -60.41665745 203.71236957 -62.16674805 203.71606445 C-64.83841803 203.72795472 -67.50777306 203.77713014 -70.17895508 203.82763672 C-71.88076674 203.83710202 -73.58259257 203.84433655 -75.28442383 203.84912109 C-76.08040985 203.86865341 -76.87639587 203.88818573 -77.69650269 203.90830994 C-81.97377584 203.87368207 -83.50877341 203.67127058 -86.96069336 200.88061523 C-89.58382944 197.51557888 -90.10494021 195.98294953 -90.1134491 191.80961609 C-90.11984657 190.39485237 -90.11984657 190.39485237 -90.12637329 188.95150757 C-90.1259201 187.91313751 -90.12546692 186.87476746 -90.125 185.80493164 C-90.12835861 184.71361435 -90.13171722 183.62229706 -90.13517761 182.49790955 C-90.14471708 178.87017696 -90.14663285 175.24249046 -90.14770508 171.61474609 C-90.15091781 169.09283936 -90.15428189 166.57093282 -90.15779114 164.04902649 C-90.16379145 158.74858087 -90.1656731 153.44815244 -90.16503906 148.14770508 C-90.16444121 142.04943702 -90.17493225 135.95125826 -90.19078273 129.85301274 C-90.20552929 123.96693686 -90.20902438 118.08089571 -90.20842934 112.19480324 C-90.20960428 109.7019394 -90.21399863 107.2090748 -90.2217617 104.71622276 C-90.30934545 73.66028852 -84.44515353 49.01838882 -62.72973633 25.60302734 C-45.44745752 9.29211783 -23.71946288 -0.02011232 0 0 Z " fill="#333333" transform="translate(1672.979736328125,109.70947265625)"/>
<path d="M0 0 C1.28583984 -0.02449219 2.57167969 -0.04898438 3.89648438 -0.07421875 C18.27866955 -0.11782315 29.67957149 3.4009447 40.30859375 13.21875 C50.16701364 23.56479066 51.51585615 35.17795276 51.55273438 48.81982422 C51.56237786 50.97273328 51.59340823 53.12466075 51.625 55.27734375 C51.73073805 68.91213173 49.44014985 80.40880311 40.12109375 90.82421875 C29.02657395 101.59819063 17.69209172 103.18278232 2.86669922 102.97192383 C0.18481019 102.93746544 -2.49379728 102.95135365 -5.17578125 102.97070312 C-18.71409519 102.96009889 -28.54677986 100.95025247 -38.6875 91.375 C-47.06476655 82.16994032 -50.80011057 73.78720299 -50.92578125 61.36328125 C-50.933853 60.59501511 -50.94192474 59.82674896 -50.95024109 59.03520203 C-50.96403079 57.41224387 -50.97477566 55.78925733 -50.98266602 54.16625977 C-50.99416002 52.52261733 -51.01457099 50.87901145 -51.04418945 49.2355957 C-51.35913722 31.73048233 -51.35913722 31.73048233 -46.6875 23.375 C-45.98367188 22.03888672 -45.98367188 22.03888672 -45.265625 20.67578125 C-38.4578301 10.48411183 -29.26510853 3.61518111 -17.20849609 0.76977539 C-11.51464826 -0.12185273 -5.74952502 0.00567854 0 0 Z M-31.6875 20.375 C-39.52982702 30.31827375 -40.86706884 39.30696396 -40.875 51.6875 C-40.89336914 53.17926758 -40.89336914 53.17926758 -40.91210938 54.70117188 C-40.93442495 66.03004458 -38.97410068 74.4228906 -31.6875 83.375 C-22.18259769 91.91036764 -11.57145059 92.8816863 0.75 92.8125 C2.00876953 92.83248047 3.26753906 92.85246094 4.56445312 92.87304688 C14.93957524 92.86763471 23.28182279 90.74396647 31.48828125 84.21875 C40.21113072 75.40250814 40.54562666 66.23241674 40.60766602 54.5234375 C40.61914083 53.0184587 40.63952103 51.51351915 40.66918945 50.00878906 C40.87183128 39.71594264 40.48597447 30.58065786 34 22.0625 C25.21997898 13.28247898 16.68952685 10.99685679 4.34570312 10.91601562 C3.03537109 10.92310547 1.72503906 10.93019531 0.375 10.9375 C-1.58469727 10.9075293 -1.58469727 10.9075293 -3.58398438 10.87695312 C-14.05633809 10.88222356 -23.92177012 12.83711549 -31.6875 20.375 Z " fill="#FCFCFC" transform="translate(606.6875,159.625)"/>
<path d="M0 0 C2.06120363 0.01391386 4.11788363 -0.02041276 6.17871094 -0.05834961 C20.50919357 -0.14177519 31.52289122 4.31133265 41.76855469 14.22875977 C48.9689858 21.97605906 51.0061624 29.02280569 52.06152344 39.57641602 C18.40152344 39.57641602 -15.25847656 39.57641602 -49.93847656 39.57641602 C-48.52050827 26.81470138 -43.79698671 17.21523598 -33.95019531 8.89672852 C-23.87547224 1.49263588 -12.20759902 -0.11453686 0 0 Z M-28.31347656 18.95141602 C-28.91933594 19.49540039 -29.52519531 20.03938477 -30.14941406 20.59985352 C-32.49852687 23.09775685 -32.49852687 23.09775685 -35.93847656 28.57641602 C-11.51847656 28.57641602 12.90152344 28.57641602 38.06152344 28.57641602 C32.672642 19.59494696 26.18359677 14.10839623 16.06152344 11.57641602 C11.79626383 11.21086622 7.54546069 11.20476828 3.26538086 11.20581055 C1.26431885 11.20144935 -0.73658466 11.16444732 -2.73730469 11.12719727 C-12.34803241 11.09837949 -21.00761206 12.15600493 -28.31347656 18.95141602 Z " fill="#FCFCFC" transform="translate(1467.9384765625,159.423583984375)"/>
</svg>
