<?xml version="1.0" encoding="UTF-8"?>
<svg version="1.1" xmlns="http://www.w3.org/2000/svg" width="2000" height="393">
<path d="M0 0 C5.32507364 4.95197931 9.10876613 10.61439592 9.67271423 18.02015686 C9.73267014 19.79420726 9.77097239 21.56906417 9.79272461 23.34399414 C9.82029059 24.36390222 9.84785658 25.38381029 9.8762579 26.43462467 C9.96827868 30.10988158 10.02914362 33.7850332 10.08984375 37.4609375 C10.13484301 39.69969446 10.18231368 41.93839214 10.2297551 44.17709857 C10.45544423 54.90630776 10.62907642 65.6362192 10.79702497 76.36646152 C10.87651888 81.41182419 10.95913399 86.45713603 11.04124451 91.50245667 C11.1786742 99.97710865 11.31360443 108.45179763 11.44702148 116.92651367 C11.59980968 126.6296275 11.75666493 136.33266908 11.9157148 146.03568214 C12.07036141 155.47663559 12.22193694 164.91763617 12.37223625 174.35865974 C12.4354427 178.32544664 12.49967325 182.29221479 12.56482124 186.25897026 C12.72706193 196.18134613 12.87750623 206.10364703 12.99447411 216.02667075 C13.05333474 220.9376524 13.13188571 225.84777329 13.22631103 230.75819463 C13.280752 233.80370204 13.31800643 236.84924569 13.35059917 239.8950578 C13.36892524 241.28767403 13.39418701 242.68022109 13.4273082 244.07256401 C13.67321951 254.64263424 12.42145307 263.95853589 4.90625 271.92578125 C-1.68994267 277.50062796 -9.32744895 279.88946069 -17.91015625 279.4609375 C-26.57351799 277.92328455 -32.68168205 274.12568564 -38.515625 267.6328125 C-42.96274171 260.70677079 -43.40942744 253.96726724 -43.56640625 245.95654297 C-43.59891479 244.8269409 -43.63142334 243.69733883 -43.66491699 242.53350639 C-43.76446833 238.84282755 -43.8404059 235.15229387 -43.91015625 231.4609375 C-43.9349707 230.22848549 -43.95978516 228.99603348 -43.98535156 227.72623444 C-44.15386389 219.04986839 -44.27379077 210.37325384 -44.38247681 201.6959939 C-44.42980738 197.99438189 -44.48165811 194.29283339 -44.53320312 190.59127808 C-44.68464766 179.66123941 -44.83006188 168.73112192 -44.97265625 157.80096436 C-45.08445127 149.23369527 -45.19825895 140.66646458 -45.31867218 132.09931171 C-45.38009159 127.71327947 -45.43718006 123.32721936 -45.49095154 118.94108701 C-45.53319053 115.59234394 -45.58152827 112.24369373 -45.62890625 108.89501953 C-45.64920898 107.08433739 -45.64920898 107.08433739 -45.66992188 105.23707581 C-45.68667969 104.13324051 -45.7034375 103.02940521 -45.72070312 101.89212036 C-45.73949524 100.45500041 -45.73949524 100.45500041 -45.75866699 98.98884773 C-45.89734004 96.67480228 -46.25820905 94.67863955 -46.91015625 92.4609375 C-49.26868281 94.78989719 -51.62112299 97.1249186 -53.97265625 99.4609375 C-54.62943359 100.10933594 -55.28621094 100.75773437 -55.96289062 101.42578125 C-59.12838341 104.57568048 -62.19888511 107.74712757 -65.09375 111.1484375 C-70.88339658 117.86354224 -77.35626413 123.96047093 -83.65820312 130.18847656 C-91.24017005 137.59985036 -91.24017005 137.59985036 -98.37890625 145.4296875 C-104.20987192 152.28035406 -110.83895452 158.44122155 -117.23095703 164.76123047 C-125.8771159 173.31204691 -125.8771159 173.31204691 -134.01367188 182.34179688 C-139.27372545 188.21940566 -145.05000006 193.64606806 -150.65820312 199.18847656 C-158.24017005 206.59985036 -158.24017005 206.59985036 -165.37890625 214.4296875 C-171.20987192 221.28035406 -177.83895452 227.44122155 -184.23095703 233.76123047 C-186.01157564 235.52357646 -187.7890356 237.28906682 -189.56640625 239.0546875 C-190.09890991 239.57889282 -190.63141357 240.10309814 -191.18005371 240.64318848 C-194.66326103 244.10415967 -197.90521711 247.7193971 -201.11853027 251.43109131 C-206.07509853 257.04670044 -211.44068444 262.29806509 -216.71337891 267.61425781 C-218.16903613 269.08641615 -219.61931852 270.56391002 -221.06396484 272.046875 C-232.81229663 284.10359714 -244.68733251 294.70040479 -260.59765625 300.8984375 C-261.39655273 301.22207275 -262.19544922 301.54570801 -263.01855469 301.87915039 C-269.18004444 304.31625963 -275.37653509 306.29145797 -281.91015625 307.4609375 C-282.915625 307.64269531 -283.92109375 307.82445312 -284.95703125 308.01171875 C-299.71517316 309.68878033 -315.60312861 309.69236866 -329.91015625 305.4609375 C-330.58304687 305.26226074 -331.2559375 305.06358398 -331.94921875 304.85888672 C-358.30398734 296.86261034 -380.26308788 279.450777 -393.91015625 255.4609375 C-407.73733614 229.32965801 -410.62246546 200.23252382 -402.14526367 171.88354492 C-396.06860174 152.97669788 -384.72983664 138.03074734 -370.66796875 124.2512207 C-369.03552263 122.58861968 -367.54138351 120.87673017 -366.04296875 119.09375 C-359.94870542 112.08542763 -353.1894871 105.6864384 -346.58935547 99.16064453 C-337.9431966 90.60982809 -337.9431966 90.60982809 -329.80664062 81.58007812 C-324.54658705 75.70246934 -318.77031244 70.27580694 -313.16210938 64.73339844 C-307.5452381 59.17654997 -301.97578295 53.66252796 -296.84667969 47.64648438 C-292.52870901 42.77325271 -287.92053816 38.16729287 -283.34082031 33.54150391 C-282.13521797 32.31927482 -280.93501584 31.09169578 -279.74023438 29.85888672 C-265.80668453 15.48657504 -265.80668453 15.48657504 -255.1015625 13.89453125 C-245.48673296 13.90488091 -239.00499894 15.1076387 -231.62890625 21.41015625 C-225.60905039 27.48453979 -223.08002665 33.80116466 -222.82421875 42.32421875 C-223.67683498 58.54636436 -236.66655247 68.37394184 -247.53515625 79.0859375 C-254.6001022 85.99365906 -254.6001022 85.99365906 -261.24609375 93.296875 C-266.96720225 99.97515276 -273.40819876 106.01179627 -279.65820312 112.18847656 C-287.24017005 119.59985036 -287.24017005 119.59985036 -294.37890625 127.4296875 C-300.20987192 134.28035406 -306.83895452 140.44122155 -313.23095703 146.76123047 C-322.14526889 155.52528015 -322.14526889 155.52528015 -330.46899414 164.84375 C-332.13619114 166.71458058 -333.95697374 168.31862883 -335.84765625 169.9609375 C-344.72653025 178.63171289 -349.13073119 191.1854388 -349.28515625 203.3359375 C-349.34134224 217.70584646 -344.80946503 228.23249085 -334.84765625 238.609375 C-329.4728969 243.77298309 -323.8767893 246.88495193 -316.91015625 249.4609375 C-316.2553125 249.70714844 -315.60046875 249.95335937 -314.92578125 250.20703125 C-304.12191761 253.55438217 -292.10024591 251.93405197 -281.91015625 247.4609375 C-274.98417363 243.76796353 -269.42278141 239.54685582 -263.9609375 233.9375 C-263.25921921 233.23249359 -262.55750092 232.52748718 -261.83451843 231.80111694 C-259.62096993 229.57198973 -257.42199074 227.32907958 -255.22265625 225.0859375 C-253.7385068 223.59027548 -252.25348688 222.0954767 -250.76757812 220.6015625 C-249.33125385 219.15181145 -247.89568129 217.70131519 -246.4609375 216.25 C-245.80660233 215.58827789 -245.15226715 214.92655579 -244.47810364 214.24478149 C-240.7035177 210.3930347 -237.11172142 206.43007091 -233.58317566 202.35263062 C-231.09725239 199.54178222 -228.45919708 196.90402201 -225.78515625 194.2734375 C-225.23456543 193.7266333 -224.68397461 193.1798291 -224.11669922 192.61645508 C-221.80236165 190.31819386 -219.48198975 188.02606234 -217.16210938 185.73339844 C-209.58014245 178.32202464 -209.58014245 178.32202464 -202.44140625 170.4921875 C-196.61044058 163.64152094 -189.98135798 157.48065345 -183.58935547 151.16064453 C-174.9431966 142.60982809 -174.9431966 142.60982809 -166.80664062 133.58007812 C-161.54658705 127.70246934 -155.77031244 122.27580694 -150.16210938 116.73339844 C-142.58014245 109.32202464 -142.58014245 109.32202464 -135.44140625 101.4921875 C-129.61044058 94.64152094 -122.98135798 88.48065345 -116.58935547 82.16064453 C-107.9431966 73.60982809 -107.9431966 73.60982809 -99.80664062 64.58007812 C-94.54658705 58.70246934 -88.77031244 53.27580694 -83.16210938 47.73339844 C-81.45098318 46.04055762 -79.74302655 44.34456213 -78.03515625 42.6484375 C-77.52452637 42.14610596 -77.01389648 41.64377441 -76.48779297 41.1262207 C-73.04944114 37.71070211 -69.85478829 34.13439725 -66.68255615 30.47155762 C-62.03135503 25.1952097 -57.00871505 20.25386003 -52.05908203 15.25976562 C-50.70797569 13.89203529 -49.36226637 12.51895275 -48.02197266 11.140625 C-46.06200881 9.12559254 -44.08581664 7.12779204 -42.10546875 5.1328125 C-41.51766632 4.5223407 -40.92986389 3.9118689 -40.32424927 3.28289795 C-29.23218949 -7.75440677 -12.53310239 -10.0982461 0 0 Z " fill="#CE3131" transform="translate(496.91015625,80.5390625)"/>
<path d="M0 0 C8.7601169 -0.10501454 17.51986091 -0.19093068 26.28056812 -0.23069286 C28.48100176 -0.2419971 30.68141725 -0.25807871 32.88177586 -0.27947903 C35.79176489 -0.30604149 38.70109989 -0.31332516 41.61119366 -0.31411457 C42.82533664 -0.33047742 42.82533664 -0.33047742 44.06400776 -0.34717083 C52.83644665 -0.29640922 59.24675834 2.75334928 65.58555889 8.81845379 C71.79935417 15.72809647 72.36069117 23.29929831 71.94493389 32.29111004 C70.54638824 46.37961726 55.97637507 56.73011013 46.48961163 66.07748699 C42.96940804 69.55889254 39.51058014 73.03161104 36.30040264 76.80282879 C30.5519023 83.49747465 24.09742668 89.55887476 17.82579327 95.75693035 C10.24382635 103.16830415 10.24382635 103.16830415 3.10509014 110.99814129 C-2.72587553 117.84880785 -9.35495812 124.00967533 -15.74696064 130.32968426 C-24.39311951 138.88050069 -24.39311951 138.88050069 -32.52967548 147.91025066 C-37.78972906 153.78785944 -43.56600367 159.21452185 -49.17420673 164.75693035 C-56.77057301 172.18497996 -56.77057301 172.18497996 -63.92615986 180.02939129 C-69.57427927 186.66523602 -75.98117377 192.63655308 -82.17420673 198.75693035 C-89.75617365 206.16830415 -89.75617365 206.16830415 -96.89490986 213.99814129 C-102.72587553 220.84880785 -109.35495812 227.00967533 -115.74696064 233.32968426 C-124.39311951 241.88050069 -124.39311951 241.88050069 -132.52967548 250.91025066 C-137.78972906 256.78785944 -143.56600367 262.21452185 -149.17420673 267.75693035 C-157.71835236 276.20688822 -157.71835236 276.20688822 -165.76649189 285.12509441 C-169.13921857 288.99494851 -172.75801428 292.62810463 -176.36365986 296.27939129 C-177.1235622 297.06829754 -177.88346455 297.85720379 -178.66639423 298.67001629 C-185.68993299 305.77152772 -192.07203276 309.60578282 -202.17615986 310.27939129 C-210.08081821 310.16007569 -217.33767554 306.95754289 -223.01990986 301.49814129 C-229.55078576 294.45503982 -231.03392829 287.73574399 -230.76990986 278.20907879 C-229.3834114 265.38396801 -218.69508991 257.17083477 -210.02064228 248.65976238 C-206.97553067 245.65785228 -204.04196594 242.62996579 -201.26990986 239.37314129 C-195.47061142 232.64752071 -188.99020306 226.53988985 -182.67811298 220.30185223 C-175.09614606 212.89047842 -175.09614606 212.89047842 -167.95740986 205.06064129 C-162.12644419 198.20997473 -155.49736159 192.04910724 -149.10535908 185.72909832 C-140.45920021 177.17828188 -140.45920021 177.17828188 -132.32264423 168.14853191 C-127.06259066 162.27092313 -121.28631604 156.84426073 -115.67811298 151.30185223 C-108.09614606 143.89047842 -108.09614606 143.89047842 -100.95740986 136.06064129 C-95.12644419 129.20997473 -88.49736159 123.04910724 -82.10535908 116.72909832 C-73.45920021 108.17828188 -73.45920021 108.17828188 -65.32264423 99.14853191 C-60.06259066 93.27092313 -54.28631604 87.84426073 -48.67811298 82.30185223 C-40.05616945 73.81707228 -40.05616945 73.81707228 -31.98865986 64.81064129 C-29.90868107 62.43946547 -27.67089849 60.24379562 -25.42615986 58.02939129 C-49.99898915 57.89889832 -74.56167779 58.04856444 -99.13143253 58.42385483 C-109.17563587 58.57716154 -119.22007338 58.7137477 -129.26453876 58.84865093 C-130.76323696 58.86883809 -132.26193488 58.88904562 -133.76063251 58.9092741 C-134.4917437 58.91912744 -135.22285488 58.92898077 -135.97612095 58.93913269 C-140.77910057 59.00466931 -145.58186706 59.07903873 -150.38465595 59.15732098 C-156.28825311 59.25208429 -162.19159803 59.32223697 -168.09574604 59.3714323 C-170.20439981 59.39311409 -172.31298444 59.42362964 -174.4213686 59.46371746 C-186.46077673 59.68752689 -195.30535567 59.74938154 -205.04725361 51.92392254 C-210.59471642 45.56521785 -212.90592343 39.88493131 -213.80115986 31.52939129 C-212.91188443 23.2294873 -210.51862953 15.94453336 -204.42615986 10.02939129 C-197.26499861 4.8367009 -191.96944291 2.93732664 -183.16457844 2.79524517 C-182.43084788 2.78214009 -181.69711733 2.76903501 -180.94115251 2.7555328 C-178.47925801 2.71272237 -176.01731112 2.6766104 -173.55531025 2.64047527 C-171.78851399 2.61116088 -170.02172432 2.58144704 -168.25494099 2.55136395 C-163.43778672 2.47060021 -158.6205566 2.39578004 -153.80328774 2.32221007 C-148.71109659 2.2436707 -143.61898127 2.16046457 -138.52685261 2.07799053 C-129.92245648 1.93939348 -121.31800573 1.8046919 -112.71351337 1.67221355 C-103.98460045 1.53777445 -95.25576654 1.39921444 -86.52698994 1.25619793 C-57.6853047 0.78414278 -28.84345182 0.34941895 0 0 Z " fill="#CE3131" transform="translate(397.4261598587036,2.970608711242676)"/>
<path d="M0 0 C1.11377518 -0.00671722 2.22755035 -0.01343445 3.37507629 -0.02035522 C7.01458324 -0.03917823 10.65390461 -0.04325004 14.29345703 -0.04541016 C16.84026157 -0.05184404 19.38706539 -0.05857283 21.93386841 -0.06558228 C27.25101739 -0.07751206 32.56809814 -0.08135328 37.88525391 -0.08007812 C44.02033294 -0.07887237 50.1550627 -0.10008176 56.29005325 -0.13156545 C62.21782454 -0.16089314 68.14548908 -0.16805397 74.07333755 -0.16685867 C76.58595338 -0.16921776 79.09857186 -0.17805848 81.6111412 -0.19352341 C85.11736087 -0.21310236 88.6226722 -0.20737863 92.12890625 -0.1953125 C93.68127235 -0.21217102 93.68127235 -0.21217102 95.26499939 -0.22937012 C101.22062081 -0.17724721 104.62792141 0.33990846 109.17626953 4.29052734 C111.86898987 7.7854893 111.48236834 11.88998907 111.47705078 16.12646484 C111.48133591 16.88343658 111.48562103 17.64040833 111.49003601 18.4203186 C111.4957685 20.01897178 111.49628754 21.61765104 111.49194336 23.21630859 C111.48878919 25.65036025 111.51223426 28.08318884 111.53759766 30.51708984 C111.5398715 32.07437999 111.54057375 33.63167338 111.53955078 35.18896484 C111.54876053 35.91103119 111.55797028 36.63309753 111.56745911 37.37704468 C111.52475983 42.08901559 110.80072998 45.3590276 108.17626953 49.29052734 C103.47509565 53.25392308 98.41199855 52.7110108 92.57788086 52.67529297 C91.51056732 52.68066574 90.44325378 52.68603851 89.34359741 52.6915741 C87.02792482 52.70135048 84.71221561 52.70429668 82.39652443 52.70121765 C78.72606084 52.696738 75.056079 52.71074649 71.38566589 52.72961426 C63.58670835 52.76640761 55.78780108 52.78010019 47.98876953 52.79052734 C38.96658403 52.80261956 29.94463268 52.82426923 20.92255211 52.87052917 C17.31650369 52.88405897 13.71075422 52.87993481 10.10469055 52.87512207 C7.87700018 52.88446872 5.64931307 52.89463905 3.42163086 52.90576172 C2.42750687 52.89961349 1.43338287 52.89346527 0.40913391 52.88713074 C-7.89313597 52.95954046 -15.87989709 54.32252951 -22.69873047 59.35302734 C-26.63753574 62.20902452 -26.63753574 62.20902452 -28.95654297 63.22412109 C-31.33901899 64.58482392 -31.65360207 65.83380323 -32.82373047 68.29052734 C-33.68271476 69.71696186 -34.55781341 71.1338162 -35.44873047 72.54052734 C-36.11775391 73.60013672 -36.11775391 73.60013672 -36.80029297 74.68115234 C-37.13802734 75.21224609 -37.47576172 75.74333984 -37.82373047 76.29052734 C-36.54666229 76.28386551 -35.26959412 76.27720367 -33.9538269 76.27033997 C-21.91791594 76.2095215 -9.88203616 76.16455107 2.15399361 76.13509083 C8.34182261 76.11943587 14.52952755 76.09820036 20.71728516 76.06420898 C26.68895563 76.03160998 32.66050678 76.01367305 38.63225937 76.00589561 C40.9104284 76.00035312 43.18859091 75.98953004 45.46670914 75.97333717 C48.65796263 75.95155614 51.84872318 75.94856076 55.04003906 75.94995117 C55.98159348 75.93916534 56.92314789 75.92837952 57.89323425 75.91726685 C63.95259443 75.9458285 68.32949142 76.75968136 73.02197266 80.93139648 C74.7802331 84.52489706 74.64405311 88.11776482 74.64501953 92.03662109 C74.65263306 92.88474869 74.66024658 93.73287628 74.66809082 94.60670471 C74.6788809 96.39784811 74.68174935 98.18905437 74.67724609 99.98022461 C74.67627395 102.71558921 74.71790024 105.44814594 74.76220703 108.18310547 C74.76741451 109.92593818 74.77010222 111.66878061 74.77001953 113.41162109 C74.78641479 114.22634384 74.80281006 115.04106659 74.81970215 115.88047791 C74.76734278 120.19913416 74.5724564 121.79902305 71.76416016 125.28295898 C68.48935876 127.82340162 66.99630901 128.41561092 62.94955444 128.41078186 C62.06331894 128.41215652 61.17708344 128.41353119 60.26399231 128.41494751 C59.28935532 128.41135223 58.31471832 128.40775696 57.31054688 128.40405273 C56.28612991 128.40419876 55.26171295 128.40434479 54.20625305 128.40449524 C50.80821643 128.4037966 47.41023412 128.39600646 44.01220703 128.38818359 C41.66093984 128.38631924 39.30967226 128.38489542 36.95840454 128.38389587 C30.76056858 128.38007206 24.56275593 128.37024291 18.3649292 128.35919189 C12.04423335 128.34897487 5.72353375 128.34439763 -0.59716797 128.33935547 C-13.0060324 128.32862054 -25.4148795 128.31154572 -37.82373047 128.29052734 C-36.87093616 129.90569122 -35.91471223 131.5188323 -34.95703125 133.13110352 C-34.42490021 134.02963547 -33.89276917 134.92816742 -33.34451294 135.85392761 C-28.12130509 144.22255829 -19.96791182 148.31483704 -10.82373047 151.29052734 C-7.53500376 152.04789736 -4.48982924 152.41768588 -1.11804199 152.42855835 C-0.20125168 152.43401169 0.71553864 152.43946503 1.66011047 152.44508362 C3.15020882 152.44664711 3.15020882 152.44664711 4.67041016 152.44824219 C5.72624802 152.45332291 6.78208588 152.45840363 7.86991882 152.46363831 C10.15942052 152.47432648 12.44893256 152.48295273 14.7384491 152.48975754 C18.36121057 152.5015583 21.98385347 152.52101275 25.60656738 152.5428772 C35.90564036 152.60446544 46.20469981 152.65859604 56.50390625 152.69189453 C62.80563099 152.71281679 69.10713717 152.74809599 75.40873718 152.79265213 C77.81049532 152.80682659 80.21229209 152.81553781 82.61408997 152.81870651 C85.9703365 152.82360468 89.32600039 152.84673368 92.68212891 152.87402344 C93.6755278 152.8710173 94.6689267 152.86801117 95.69242859 152.86491394 C100.65136572 152.92491613 104.18308515 153.00150395 108.17626953 156.29052734 C111.47940648 160.34027609 111.61712095 164.18871704 111.57470703 169.22412109 C111.5790123 170.35745628 111.5790123 170.35745628 111.58340454 171.51368713 C111.58543941 173.10638176 111.57994998 174.6991017 111.56738281 176.29174805 C111.55134216 178.71704598 111.56723832 181.14067201 111.58642578 183.56591797 C111.58444281 185.11865599 111.58059801 186.67139298 111.57470703 188.22412109 C111.58077972 188.94305038 111.58685242 189.66197968 111.59310913 190.4026947 C111.5282164 195.09739677 110.78711719 198.37140326 108.17626953 202.29052734 C103.45361766 206.29526087 98.26791703 205.71356185 92.39770508 205.67871094 C90.76730034 205.68659637 90.76730034 205.68659637 89.10395813 205.69464111 C85.50682225 205.70785272 81.91012878 205.6990918 78.31298828 205.68896484 C75.8025555 205.69098685 73.29212328 205.69389934 70.7816925 205.69766235 C65.511724 205.70208863 60.24186977 205.69593858 54.97192383 205.68164062 C49.58609883 205.66719492 44.20052194 205.66705144 38.81469727 205.68164062 C32.29253029 205.69915026 25.7705442 205.70169764 19.24836159 205.69197464 C16.77472706 205.68998814 14.30108465 205.69237672 11.82745934 205.6994133 C-16.0864896 205.76133267 -41.20735186 201.67664467 -62.82373047 182.29052734 C-63.71833984 181.49001953 -64.61294922 180.68951172 -65.53466797 179.86474609 C-75.28142858 170.65037157 -82.51733332 160.13328634 -87.76123047 147.79052734 C-88.03161133 147.16388184 -88.30199219 146.53723633 -88.58056641 145.89160156 C-93.73074042 132.89214459 -94.33370406 119.5593856 -94.26977539 105.77612305 C-94.2612724 102.99175754 -94.29013075 100.20945724 -94.32177734 97.42529297 C-94.419097 72.84936146 -87.9689483 52.63993608 -72.82373047 33.29052734 C-72.30037109 32.59443359 -71.77701172 31.89833984 -71.23779297 31.18115234 C-61.55451946 18.97910826 -46.65884026 10.0649687 -32.13623047 4.85302734 C-31.48444824 4.61817627 -30.83266602 4.3833252 -30.16113281 4.14135742 C-20.34240876 0.86156844 -10.29186309 -0.00912062 0 0 Z " fill="#363636" transform="translate(1151.82373046875,96.70947265625)"/>
<path d="M0 0 C0.86455811 -0.00570007 1.72911621 -0.01140015 2.61987305 -0.01727295 C4.44530024 -0.02668025 6.27074408 -0.03323985 8.09619141 -0.03710938 C10.83918355 -0.04674913 13.58140405 -0.07778599 16.32421875 -0.109375 C43.9927323 -0.27768125 66.86432268 7.80649374 86.875 27.203125 C87.79152344 28.00943359 87.79152344 28.00943359 88.7265625 28.83203125 C103.76030201 42.52715012 112.77055493 65.21063403 114.06455421 85.11952019 C114.13861095 88.09549924 114.15685797 91.06584024 114.1496582 94.04272461 C114.15476913 95.15810608 114.15988007 96.27348755 114.16514587 97.42266846 C114.17891715 101.06699149 114.17809586 104.71112299 114.17578125 108.35546875 C114.17967238 110.90466888 114.18400791 113.45386836 114.18876648 116.00306702 C114.19619984 121.32441589 114.19609631 126.64569549 114.19067383 131.96704102 C114.18461057 138.11003538 114.19701877 144.25280206 114.2182439 150.39575762 C114.23798539 156.32887378 114.24103462 162.2619193 114.23750877 168.19507027 C114.23802225 170.71129456 114.24326496 173.22752248 114.25332069 175.74372673 C114.26563355 179.25242743 114.25892617 182.76059519 114.24731445 186.26928711 C114.25495819 187.30779312 114.26260193 188.34629913 114.27047729 189.41627502 C114.20595504 198.22085323 114.20595504 198.22085323 110.875 202.203125 C106.78449548 205.55632078 102.81455492 205.65684183 97.72265625 205.63671875 C96.94490341 205.6419606 96.16715057 205.64720245 95.36582947 205.65260315 C93.72607615 205.65900687 92.0862768 205.65770774 90.4465332 205.64916992 C87.94854257 205.64066261 85.45284298 205.66943626 82.95507812 205.70117188 C81.35677151 205.70278427 79.75846088 205.70220562 78.16015625 205.69921875 C77.41935318 205.71045273 76.67855011 205.72168671 75.91529846 205.73326111 C70.76660872 205.66466886 67.78779988 204.53334675 63.875 201.203125 C61.8013379 197.97370994 61.63084526 195.40547641 61.64794922 191.60839844 C61.64819092 190.47192871 61.64843262 189.33545898 61.64868164 188.16455078 C61.65891357 186.97587402 61.66914551 185.78719727 61.6796875 184.5625 C61.68270874 182.91725342 61.68270874 182.91725342 61.68579102 181.23876953 C61.69625108 177.14351212 61.72417366 173.04831434 61.75 168.953125 C61.79125 159.795625 61.8325 150.638125 61.875 141.203125 C28.545 141.203125 -4.785 141.203125 -39.125 141.203125 C-39.00635825 159.40772685 -39.00635825 159.40772685 -38.85473633 177.61206055 C-38.8459735 179.89631734 -38.83832908 182.18057883 -38.83203125 184.46484375 C-38.81668335 185.64840454 -38.80133545 186.83196533 -38.78552246 188.0513916 C-38.78515991 189.18774048 -38.78479736 190.32408936 -38.78442383 191.49487305 C-38.77776199 192.47860397 -38.77110016 193.4623349 -38.76423645 194.47587585 C-39.3208521 198.68369994 -41.0506295 201.32240855 -44.30297852 203.98852539 C-47.97603685 205.56941173 -51.34643093 205.65225364 -55.27734375 205.63671875 C-56.05509659 205.6419606 -56.83284943 205.64720245 -57.63417053 205.65260315 C-59.27392385 205.65900687 -60.9137232 205.65770774 -62.5534668 205.64916992 C-65.05145743 205.64066261 -67.54715702 205.66943626 -70.04492188 205.70117188 C-71.64322849 205.70278427 -73.24153912 205.70220562 -74.83984375 205.69921875 C-75.58064682 205.71045273 -76.32144989 205.72168671 -77.08470154 205.73326111 C-82.23339128 205.66466886 -85.21220012 204.53334675 -89.125 201.203125 C-90.9736759 198.22877951 -91.37695422 195.97772792 -91.38569641 192.50189209 C-91.39278122 191.56030243 -91.39986603 190.61871277 -91.40716553 189.64859009 C-91.40468811 188.62212372 -91.40221069 187.59565735 -91.3996582 186.53808594 C-91.40476913 185.45129547 -91.40988007 184.364505 -91.41514587 183.24478149 C-91.42907247 179.64229861 -91.42808126 176.04000666 -91.42578125 172.4375 C-91.42966953 169.92563811 -91.43400447 167.41377688 -91.43876648 164.9019165 C-91.44623749 159.62600081 -91.44607188 154.35013431 -91.44067383 149.07421875 C-91.4353289 143.68156742 -91.44225796 138.28910477 -91.46118164 132.89648438 C-91.48378849 126.36900147 -91.49141138 119.84167545 -91.48750877 113.31415558 C-91.48801868 110.83772485 -91.49319354 108.36129014 -91.50332069 105.88488007 C-91.60342705 77.9545081 -87.52621102 52.83239029 -68.125 31.203125 C-67.31289062 30.29691406 -66.50078125 29.39070313 -65.6640625 28.45703125 C-48.64688279 10.46672836 -24.76008706 0.1293291 0 0 Z M-28.9375 65.890625 C-35.06459902 73.09132191 -37.79345233 79.8822913 -39.125 89.203125 C-5.795 89.203125 27.535 89.203125 61.875 89.203125 C59.49860673 77.32115864 55.82880447 67.63717708 45.875 60.203125 C35.25912396 53.80677901 26.70466688 51.99573579 14.45068359 51.96289062 C12.27792122 51.9532489 10.10613185 51.92223274 7.93359375 51.890625 C-6.7727562 51.7773246 -18.49514632 54.99876603 -28.9375 65.890625 Z " fill="#363636" transform="translate(1580.125,96.796875)"/>
<path d="M0 0 C0.86455811 -0.00570007 1.72911621 -0.01140015 2.61987305 -0.01727295 C4.44530024 -0.02668025 6.27074408 -0.03323985 8.09619141 -0.03710938 C10.83918355 -0.04674913 13.58140405 -0.07778599 16.32421875 -0.109375 C44.57059386 -0.28005328 68.08030922 8.95797928 88.5625 28.578125 C108.06736959 48.73315691 114.32105893 74.94293 114.25 102.203125 C114.24912384 103.02227386 114.24824768 103.84142273 114.24734497 104.68539429 C114.14390091 133.99514161 106.88202805 157.83328127 85.875 179.203125 C85.20082031 179.89019531 84.52664063 180.57726562 83.83203125 181.28515625 C64.83758303 199.35304602 39.93949543 205.7950939 14.36645508 205.59423828 C11.94229714 205.57815682 9.51981113 205.59419186 7.09570312 205.61328125 C-21.63915496 205.65399943 -45.11155007 196.42004396 -66.1875 176.578125 C-82.20696965 160.15628249 -91.20975668 136.98117692 -91.328125 114.17578125 C-91.33382507 113.3098082 -91.33952515 112.44383514 -91.34539795 111.55162048 C-91.35481702 109.72021696 -91.36136959 107.88879672 -91.36523438 106.05737305 C-91.37486048 103.30550985 -91.40587995 100.55442013 -91.4375 97.80273438 C-91.60553202 70.11265396 -83.53934361 47.23207539 -64.125 27.203125 C-63.58746094 26.59210938 -63.04992187 25.98109375 -62.49609375 25.3515625 C-47.22785688 8.59094157 -22.08016802 0.11533111 0 0 Z M-31.33203125 68.6953125 C-38.46802152 78.67637079 -39.35707122 88.12376932 -39.42016602 99.99975586 C-39.43162687 101.49789926 -39.45198434 102.99600376 -39.48168945 104.49389648 C-39.76661848 118.88520001 -37.15833718 130.52649324 -27.125 141.36328125 C-16.42361778 151.5869232 -5.2853639 153.40368125 8.94750977 153.44335938 C11.03898646 153.45301643 13.12945852 153.48405532 15.22070312 153.515625 C29.08512281 153.62671629 40.2249116 150.54713459 50.625 141.015625 C60.919765 130.01507233 62.22277181 117.77446732 62.1875 103.390625 C62.20361328 102.08802734 62.21972656 100.78542969 62.23632812 99.44335938 C62.24335957 85.45780676 59.25712253 74.15343564 49.875 63.515625 C39.69885795 53.88830859 27.44108449 51.97895248 14.07836914 51.90795898 C12.58022574 51.89649813 11.08212124 51.87614066 9.58422852 51.84643555 C-7.14404396 51.51523759 -20.22005118 55.60934794 -31.33203125 68.6953125 Z " fill="#363636" transform="translate(718.125,96.796875)"/>
<path d="M0 0 C1.01482452 -0.0071553 2.02964905 -0.01431061 3.07522583 -0.02168274 C4.19311493 -0.02437164 5.31100403 -0.02706055 6.46276855 -0.02983093 C7.63693329 -0.03640213 8.81109802 -0.04297333 10.02084351 -0.04974365 C13.9227025 -0.06951922 17.82454803 -0.08115297 21.72644043 -0.09111023 C23.07154867 -0.09515844 24.4166567 -0.09927539 25.76176453 -0.10346031 C32.08678004 -0.12252151 38.41178388 -0.1367459 44.73682261 -0.14507228 C52.0233455 -0.1548236 59.3095629 -0.18108355 66.59597826 -0.22157317 C72.23519655 -0.25182626 77.87432781 -0.26655015 83.51362562 -0.26985329 C86.87759418 -0.272195 90.24123677 -0.28103807 93.6051178 -0.30631447 C97.3678088 -0.33072508 101.1297097 -0.32973625 104.89245605 -0.32279968 C106.54499893 -0.34201477 106.54499893 -0.34201477 108.23092651 -0.36161804 C118.32435006 -0.2940568 126.1398053 2.38739153 133.50769043 9.35420227 C140.28681442 16.55702151 141.49511419 23.52935315 141.48571777 33.0136261 C141.492435 33.99181305 141.49915222 34.97 141.506073 35.97782898 C141.52504515 39.20750541 141.52897806 42.43697358 141.53112793 45.66670227 C141.53756074 47.92668745 141.54428946 50.18667181 141.55130005 52.44665527 C141.563274 57.18856227 141.56698118 61.93039646 141.5657959 66.6723175 C141.56559371 72.70614567 141.59279205 78.73949755 141.62734032 84.77321339 C141.6497503 89.44654416 141.653629 94.11976335 141.65257645 98.79314232 C141.65491524 101.01476862 141.66363998 103.23639882 141.67924118 105.45797157 C141.78216073 121.64017424 140.93565139 137.22602005 133.50769043 151.95967102 C133.16737793 152.65705383 132.82706543 153.35443665 132.47644043 154.07295227 C129.12212694 160.70839422 124.96940765 166.44181214 120.19519043 172.14717102 C119.57128418 172.93349915 118.94737793 173.71982727 118.30456543 174.52998352 C104.16624269 191.57913741 82.36190443 202.26416758 60.52835083 204.92964268 C56.34260181 205.31989405 52.1599382 205.3032092 47.9588623 205.30830383 C46.46945885 205.31575119 46.46945885 205.31575119 44.94996643 205.323349 C41.68795056 205.33787212 38.42598323 205.34475436 35.16394043 205.35029602 C32.88525391 205.35605341 30.60656738 205.36181107 28.32788086 205.36756897 C23.56017838 205.37804939 18.79249263 205.38391211 14.02478027 205.3874054 C7.92520326 205.39289895 1.82584846 205.41695804 -4.27365875 205.44537735 C-8.97663009 205.46402252 -13.67954793 205.46921023 -18.3825531 205.47074127 C-20.63115154 205.47376156 -22.87974918 205.48176892 -25.12831116 205.49492645 C-28.27520629 205.51203401 -31.42155832 205.51009559 -34.56848145 205.50361633 C-35.49027695 205.51283112 -36.41207245 205.5220459 -37.36180115 205.53153992 C-44.60554298 205.48496124 -49.94572524 204.0715547 -56.05480957 199.95967102 C-62.57374644 193.2925765 -63.91676505 186.09763532 -63.96594238 176.98945618 C-63.97090729 176.28795944 -63.97587219 175.58646271 -63.98098755 174.8637085 C-63.99553295 172.55454002 -64.00239782 170.24544019 -64.00793457 167.93623352 C-64.01369161 166.32347107 -64.01944927 164.71070862 -64.02520752 163.09794617 C-64.03569534 159.72047102 -64.04155273 156.34301952 -64.04504395 152.9655304 C-64.05052881 148.64924354 -64.07456592 144.33327209 -64.1030159 140.01708412 C-64.12168693 136.68668212 -64.12685021 133.35635551 -64.12837982 130.02590561 C-64.13139601 128.435172 -64.13938944 126.84443938 -64.152565 125.25375748 C-64.16972224 123.02348893 -64.16772236 120.79398365 -64.16125488 118.56367493 C-64.16490051 117.29746307 -64.16854614 116.03125122 -64.17230225 114.72666931 C-63.68381001 109.96859588 -62.34049309 106.06677542 -59.30480957 102.27217102 C-55.63759953 99.52176349 -51.38991426 99.96926789 -47.03137207 99.94404602 C-46.27061371 99.93834595 -45.50985535 99.93264587 -44.7260437 99.92677307 C-43.11722195 99.91733354 -41.50838095 99.91079325 -39.89953613 99.90693665 C-37.44574042 99.89723401 -34.99278368 99.86620322 -32.53918457 99.83467102 C-30.97408536 99.82814017 -29.40898018 99.82289002 -27.84387207 99.81904602 C-26.74832504 99.80052582 -26.74832504 99.80052582 -25.63064575 99.78163147 C-21.15480374 99.80108002 -18.33363394 100.35407696 -14.80480957 103.14717102 C-12.18650937 106.09049869 -11.43186931 107.89708619 -11.4642334 111.82392883 C-11.46457329 113.20490753 -11.46457329 113.20490753 -11.46492004 114.61378479 C-11.4804039 115.5993335 -11.49588776 116.5848822 -11.51184082 117.60029602 C-11.51608566 118.6156543 -11.52033051 119.63101257 -11.52470398 120.67713928 C-11.54148533 123.91742056 -11.57913716 127.15707799 -11.61730957 130.39717102 C-11.63235708 132.5950787 -11.64604537 134.79299614 -11.6583252 136.99092102 C-11.69138702 142.37655024 -11.74158121 147.76181606 -11.80480957 153.14717102 C-3.42370043 153.10888156 4.95688347 153.0491882 13.33762646 152.96326828 C17.23051151 152.92400721 21.12317761 152.89171546 25.01623535 152.87617493 C28.7837061 152.86086552 32.55057397 152.82617387 36.31777382 152.778862 C37.74438504 152.76419353 39.17108241 152.75613851 40.59776878 152.75528717 C54.99124052 152.73808407 67.38148102 150.16052365 78.19519043 140.14717102 C86.00867676 131.11282745 88.8178658 121.02568844 88.72644043 109.29560852 C88.73026733 108.19673309 88.73409424 107.09785767 88.73803711 105.96568298 C88.74074284 103.65800553 88.73347628 101.35029671 88.7166748 99.04267883 C88.69520603 95.52472813 88.71654503 92.00880992 88.74206543 88.49092102 C88.73942272 86.23831238 88.73429893 83.985705 88.72644043 81.73310852 C88.73453735 80.6902066 88.74263428 79.64730469 88.75097656 78.57279968 C88.67821952 72.87061139 88.06232074 68.73433475 85.14916992 63.78282166 C84.19519043 62.14717102 84.19519043 62.14717102 83.19519043 59.14717102 C81.34548147 58.03412528 81.34548147 58.03412528 79.19519043 57.14717102 C78.61214645 56.799814 78.02910248 56.45245697 77.4283905 56.09457397 C70.49555556 52.35496442 63.38050312 52.59028885 55.7225132 52.63075066 C53.29600211 52.64349438 50.8706096 52.63199056 48.44413757 52.61471558 C44.17047389 52.58814305 39.89708941 52.58241534 35.62335205 52.58381653 C28.77390055 52.58605413 21.92479273 52.57183521 15.07547569 52.52823067 C12.6923273 52.51842971 10.30972666 52.52708655 7.92658997 52.53692627 C6.45988613 52.53078042 4.99318523 52.52386814 3.52648926 52.5160675 C2.25235672 52.51702927 0.97822418 52.51799103 -0.33451843 52.51898193 C-4.16083697 52.10902584 -6.55186851 51.17745101 -9.80480957 49.14717102 C-13.97142204 42.89725232 -12.99097596 35.54983241 -12.9901123 28.28218079 C-12.99229927 26.2193896 -13.0104861 24.15713347 -13.02941895 22.09443665 C-13.03135254 20.78281555 -13.03328613 19.47119446 -13.03527832 18.11982727 C-13.03938721 16.92623596 -13.04349609 15.73264465 -13.04772949 14.50288391 C-12.71168522 9.86074463 -11.87206686 6.38118726 -8.80480957 2.83467102 C-5.72031304 0.23212707 -3.96059281 0.01912838 0 0 Z " fill="#363636" transform="translate(1336.8048095703125,96.85282897949219)"/>
<path d="M0 0 C0.97003967 -0.00511093 1.94007935 -0.01022186 2.93951416 -0.01548767 C6.14154264 -0.02936678 9.34335519 -0.02842678 12.54541016 -0.02612305 C14.78537068 -0.03001359 17.02533046 -0.034349 19.26528931 -0.03910828 C23.96431871 -0.04656889 28.66327301 -0.0462823 33.36230469 -0.04101562 C39.34459044 -0.0352502 45.32656364 -0.05208178 51.30879784 -0.0753603 C55.94005085 -0.09019994 60.57123062 -0.09095502 65.2025032 -0.08785057 C67.40540811 -0.08835962 69.60831758 -0.09351789 71.81119919 -0.10366249 C87.31457647 -0.16624605 102.59367029 0.10637423 117.02197266 6.5246582 C117.7293457 6.82984375 118.43671875 7.1350293 119.16552734 7.44946289 C141.78449855 17.4851487 158.95872747 35.41924359 168.20947266 58.2746582 C172.35222484 69.43923717 174.35497763 79.76879494 174.40234375 91.69262695 C174.41460999 93.40586655 174.41460999 93.40586655 174.42712402 95.15371704 C174.4518843 98.92319217 174.46846535 102.69263002 174.48291016 106.4621582 C174.48823383 107.75100922 174.49355751 109.03986023 174.49904251 110.36776733 C174.52024442 115.78265277 174.53937684 121.19752615 174.5506649 126.61244202 C174.5669181 134.35548194 174.6001647 142.09802143 174.65706575 149.84087276 C174.70045579 155.95444877 174.71641113 162.06782852 174.72279739 168.18154907 C174.72952015 170.77791925 174.74476854 173.37428184 174.7686882 175.97055054 C174.80023059 179.59965367 174.80039272 183.2274858 174.79296875 186.85668945 C174.80937408 187.92907867 174.82577942 189.0014679 174.84268188 190.10635376 C174.77455961 198.23376961 174.77455961 198.23376961 171.86050415 201.92578125 C167.5996971 205.70095763 163.67700959 205.45973501 158.25244141 205.51293945 C157.47185867 205.5210112 156.69127594 205.52908295 155.88703918 205.53739929 C154.23534352 205.5512214 152.58361951 205.56195193 150.93188477 205.56982422 C148.4164363 205.58702511 145.90230689 205.63092427 143.38720703 205.67504883 C141.77979479 205.68517762 140.17237141 205.69369314 138.56494141 205.70043945 C137.44432564 205.72670158 137.44432564 205.72670158 136.30107117 205.75349426 C131.11968498 205.73216262 128.10381855 204.69485899 124.20947266 201.2746582 C121.40970233 196.43680142 121.93182381 191.10856998 121.95410156 185.69213867 C121.94867088 184.0935778 121.94867088 184.0935778 121.94313049 182.46272278 C121.93624212 180.15031668 121.93373001 177.83789433 121.93507767 175.52547836 C121.93604381 171.85900671 121.92308836 168.19282751 121.90609741 164.52639771 C121.85986191 154.10233853 121.83523446 143.67830857 121.82861328 133.25415039 C121.82358427 126.87457056 121.79926019 120.49529472 121.76328659 114.11581802 C121.75351783 111.69110061 121.75114058 109.26634121 121.75645828 106.84160995 C121.76356908 103.43859403 121.74616182 100.03647614 121.72363281 96.63354492 C121.73180527 95.6430162 121.73997772 94.65248749 121.74839783 93.63194275 C121.6097561 81.78507341 117.10958652 72.02619776 109.20947266 63.2746582 C101.00995601 56.35719657 92.15523842 53.20991312 81.49145508 53.06933594 C80.83723572 53.05943634 80.18301636 53.04953674 79.50897217 53.03933716 C77.36099788 53.00791906 75.21300153 52.98304328 73.06494141 52.95825195 C71.56992541 52.93766538 70.07491501 52.91666847 68.57991028 52.89527893 C64.65581817 52.84023405 60.73167507 52.79074767 56.80749512 52.74243164 C52.79886365 52.69208776 48.79030571 52.63646913 44.78173828 52.58129883 C36.92437869 52.47393252 29.06695734 52.37244028 21.20947266 52.2746582 C21.21408162 53.02157236 21.21869059 53.76848652 21.22343922 54.53803444 C21.33388282 72.71592187 21.41661186 90.89374229 21.46853352 109.07189369 C21.49431017 117.862749 21.52945027 126.65338028 21.58666992 135.4440918 C21.63652155 143.10650132 21.66876759 150.76874859 21.67991513 158.43131578 C21.68643098 162.48830589 21.70173329 166.54483185 21.73812294 170.60167313 C21.77211062 174.42175508 21.7825203 178.24118258 21.77501106 182.06140137 C21.7763844 183.46184218 21.78630124 184.86230532 21.80550003 186.2626152 C21.96054539 198.15660161 21.96054539 198.15660161 18.86149597 202.09237671 C14.54366589 205.64540757 10.6023384 205.46046739 5.25244141 205.51293945 C4.47185867 205.5210112 3.69127594 205.52908295 2.88703918 205.53739929 C1.23534352 205.5512214 -0.41638049 205.56195193 -2.06811523 205.56982422 C-4.5835637 205.58702511 -7.09769311 205.63092427 -9.61279297 205.67504883 C-11.22020521 205.68517762 -12.82762859 205.69369314 -14.43505859 205.70043945 C-15.55567436 205.72670158 -15.55567436 205.72670158 -16.69892883 205.75349426 C-21.88031502 205.73216262 -24.89618145 204.69485899 -28.79052734 201.2746582 C-30.91021708 197.20940454 -31.04381969 193.70869437 -31.05122375 189.16619873 C-31.0550493 188.46182214 -31.05887485 187.75744555 -31.06281632 187.03172421 C-31.07311419 184.67740439 -31.0691603 182.32332991 -31.06518555 179.96899414 C-31.06953391 178.27844518 -31.07471747 176.58789819 -31.08067322 174.89735413 C-31.09406383 170.30832708 -31.09464162 165.7193824 -31.09210992 161.13033962 C-31.09103985 157.29606885 -31.09592471 153.46181471 -31.10071534 149.6275475 C-31.1118116 140.57777617 -31.11224782 131.52804633 -31.10620117 122.47827148 C-31.10016589 113.15282006 -31.1124608 103.82751968 -31.13377124 94.50209403 C-31.15140869 86.488321 -31.15738506 78.47459594 -31.1541335 70.46080422 C-31.15232328 65.67792674 -31.15493032 60.89515691 -31.16884804 56.11229706 C-31.18145597 51.61098876 -31.17945428 47.109915 -31.16643715 42.60861015 C-31.16407794 40.96112678 -31.16678245 39.31362676 -31.17506027 37.66616249 C-31.23150709 25.55371722 -30.45459895 15.5711438 -21.79052734 6.2746582 C-14.86961615 0.79560351 -8.52123421 -0.02327353 0 0 Z " fill="#363636" transform="translate(872.79052734375,96.725341796875)"/>
<path d="M0 0 C1.68507408 -0.01007584 1.68507408 -0.01007584 3.40419006 -0.02035522 C7.08159924 -0.03920503 10.75882496 -0.04325161 14.4362793 -0.04541016 C17.00693332 -0.05184281 19.57758662 -0.05857151 22.14823914 -0.06558228 C27.51844294 -0.07751927 32.88857466 -0.0813525 38.25878906 -0.08007812 C44.45576197 -0.07887297 50.65238875 -0.10006775 56.84927398 -0.13156545 C62.83420003 -0.16089393 68.81893804 -0.16805391 74.80394554 -0.16685867 C77.34168101 -0.16921813 79.87941908 -0.17806093 82.41710854 -0.19352341 C85.95935691 -0.21310215 89.50070614 -0.20737838 93.04296875 -0.1953125 C94.08880127 -0.20655151 95.13463379 -0.21779053 96.2121582 -0.22937012 C102.17893422 -0.17768124 105.66713921 0.28380749 110.19799805 4.29052734 C112.59325154 8.29583962 112.50471523 12.45231567 112.4987793 17.00537109 C112.50306442 17.73873184 112.50734955 18.47209259 112.51176453 19.22767639 C112.51748771 20.77327445 112.51802296 22.31889943 112.51367188 23.86450195 C112.51051249 26.21726846 112.53399225 28.56877546 112.55932617 30.92138672 C112.5615996 32.4285466 112.56230246 33.93570984 112.5612793 35.44287109 C112.57048904 36.13992661 112.57969879 36.83698212 112.58918762 37.55516052 C112.54561269 42.20112203 111.77250274 45.41103569 109.19799805 49.29052734 C104.49853407 53.25487245 99.43272339 52.71100466 93.59960938 52.67529297 C92.53229584 52.68066574 91.4649823 52.68603851 90.36532593 52.6915741 C88.04965334 52.70135048 85.73394412 52.70429668 83.41825294 52.70121765 C79.74778935 52.696738 76.07780751 52.71074649 72.40739441 52.72961426 C64.60843686 52.76640761 56.80952959 52.78010019 49.01049805 52.79052734 C39.98831255 52.80261956 30.9663612 52.82426923 21.94428062 52.87052917 C18.33823221 52.88405897 14.73248274 52.87993481 11.12641907 52.87512207 C8.8987287 52.88446872 6.67104158 52.89463905 4.44335938 52.90576172 C3.44923538 52.89961349 2.45511139 52.89346527 1.43086243 52.88713074 C-9.66523606 52.98390733 -19.19575732 56.15707755 -27.80200195 63.29052734 C-31.26078924 67.30915039 -34.42454746 71.53561837 -36.80200195 76.29052734 C-35.52493378 76.28386551 -34.2478656 76.27720367 -32.93209839 76.27033997 C-20.89618743 76.2095215 -8.86030765 76.16455107 3.17572212 76.13509083 C9.36355113 76.11943587 15.55125607 76.09820036 21.73901367 76.06420898 C27.71068415 76.03160998 33.68223529 76.01367305 39.65398788 76.00589561 C41.93215692 76.00035312 44.21031943 75.98953004 46.48843765 75.97333717 C49.67969114 75.95155614 52.8704517 75.94856076 56.06176758 75.94995117 C57.00332199 75.93916534 57.9448764 75.92837952 58.91496277 75.91726685 C64.97734198 75.94584273 69.36371863 76.75583328 74.0480957 80.94506836 C75.77961819 84.47685955 75.6258466 87.96816878 75.59643555 91.81787109 C75.60074081 93.05676842 75.60074081 93.05676842 75.60513306 94.32069397 C75.60717144 96.0647958 75.60165735 97.80892062 75.58911133 99.55297852 C75.57307431 102.21536716 75.5889565 104.87623311 75.6081543 107.53857422 C75.60617142 109.23584318 75.60232684 110.9331112 75.59643555 112.63037109 C75.60250824 113.42322006 75.60858093 114.21606903 75.61483765 115.03294373 C75.55737215 119.57538046 75.21059198 122.65162426 72.19799805 126.29052734 C69.23674039 128.10590466 67.02836981 128.53898442 63.57891846 128.53103638 C62.19495628 128.53516037 62.19495628 128.53516037 60.78303528 128.53936768 C59.77818588 128.53217712 58.77333649 128.52498657 57.73803711 128.51757812 C56.67431381 128.51787018 55.61059052 128.51816223 54.51463318 128.51846313 C50.99754692 128.51706945 47.48067232 128.50150616 43.96362305 128.48583984 C41.52553422 128.48210986 39.08744389 128.47926282 36.64935303 128.4772644 C30.23122013 128.46962683 23.81317771 128.44997716 17.39508057 128.42785645 C10.84632593 128.40740076 4.29755667 128.39826327 -2.2512207 128.38818359 C-15.10151972 128.36673148 -27.95175603 128.3329782 -40.80200195 128.29052734 C-40.79534012 129.12911285 -40.78867828 129.96769836 -40.78181458 130.83169556 C-40.72162268 138.74708108 -40.67598653 146.66238937 -40.64656544 154.57795143 C-40.63093108 158.64711929 -40.60973387 162.71609751 -40.57568359 166.78515625 C-40.54301013 170.71441885 -40.52513217 174.64349942 -40.51737022 178.57288742 C-40.511841 180.06956217 -40.50104371 181.56622731 -40.48481178 183.06282425 C-40.46293052 185.16449511 -40.46003937 187.26542046 -40.46142578 189.3671875 C-40.45476395 190.56187653 -40.44810211 191.75656555 -40.4412384 192.98745728 C-40.95143856 197.65873538 -42.370715 201.0657879 -45.96411133 204.140625 C-49.72389536 205.664075 -53.215258 205.72054471 -57.20825195 205.68896484 C-58.41173279 205.69327011 -58.41173279 205.69327011 -59.63952637 205.69766235 C-61.33057361 205.69969773 -63.02164469 205.69420475 -64.71264648 205.68164062 C-67.29375093 205.66557869 -69.87328967 205.68150638 -72.4543457 205.70068359 C-74.10148456 205.69870107 -75.74862244 205.6948572 -77.39575195 205.68896484 C-78.16359009 205.69503754 -78.93142822 205.70111023 -79.72253418 205.70736694 C-84.24515614 205.64831552 -87.26835848 205.19386743 -90.80200195 202.29052734 C-92.67565032 199.25946951 -93.05414077 196.96021399 -93.06269836 193.42398071 C-93.06978317 192.44584412 -93.07686798 191.46770752 -93.08416748 190.45993042 C-93.08169006 189.39291901 -93.07921265 188.32590759 -93.07666016 187.2265625 C-93.08177109 186.09754517 -93.08688202 184.96852783 -93.09214783 183.80529785 C-93.10607401 180.06334156 -93.10508357 176.32156902 -93.1027832 172.57958984 C-93.10667084 169.97325573 -93.11100565 167.36692226 -93.11576843 164.7605896 C-93.1239852 159.28796769 -93.1230736 153.81539737 -93.11767578 148.34277344 C-93.11166239 142.0490282 -93.12387869 135.75550801 -93.14524585 129.46180117 C-93.16511865 123.38135324 -93.16801898 117.30100891 -93.16451073 111.22053146 C-93.16502155 108.64755096 -93.17021396 106.07456669 -93.18032265 103.50160599 C-93.28187645 74.01481756 -87.36719451 48.80291599 -66.44360352 26.92480469 C-48.66589725 9.22641597 -24.95711657 -0.02184048 0 0 Z " fill="#363636" transform="translate(1797.802001953125,96.70947265625)"/>
<path d="M0 0 C0.66 0.33 1.32 0.66 2 1 C-2.95 5.95 -7.9 10.9 -13 16 C-13.66 15.67 -14.32 15.34 -15 15 C-10.28109462 9.59947495 -5.69641143 4.38185495 0 0 Z " fill="#787878" transform="translate(1740,116)"/>
<path d="M0 0 C0.66 0.33 1.32 0.66 2 1 C-2.62 5.62 -7.24 10.24 -12 15 C-12.66 14.67 -13.32 14.34 -14 14 C-9.72706118 8.76564995 -5.18419194 4.32893185 0 0 Z " fill="#757575" transform="translate(1093,116)"/>
<path d="M0 0 C0.66 0.33 1.32 0.66 2 1 C-1.3 4.3 -4.6 7.6 -8 11 C-8 6.67750434 -5.85084926 5.11604454 -3 2 C-2.01 1.34 -1.02 0.68 0 0 Z " fill="#DC6E6E" transform="translate(197,10)"/>
<path d="M0 0 C0.66 0.33 1.32 0.66 2 1 C-1.3 4.3 -4.6 7.6 -8 11 C-8 7.0234755 -6.61988497 5.9109833 -4 3 C-1.75 1.1875 -1.75 1.1875 0 0 Z " fill="#797979" transform="translate(855,100)"/>
</svg>
